<svg xmlns="http://www.w3.org/2000/svg" viewBox="0 0 1273 600"><style>:root{--ink:#1b1b1b;--mist:#b4b9c0;--slate:#6b7280;--ember:#c2410c;--amber:#b45309;--peach:#fdba74;--deep:#0369a1;--sky:#38bdf8;--haze:#bfd7e6;--steel:#7fb2cc;--frost:#e0f2fe;--moss:#15803d}@media(prefers-color-scheme:dark){:root{--ink:#ebebeb;--mist:#3a414c;--slate:#9aa3ae;--ember:#f97316;--amber:#eba043;--peach:#7a4a1c;--deep:#4cb8ea;--sky:#1f6f96;--haze:#33505f;--steel:#41708a;--frost:#17293b;--moss:#3ec46d}}</style><path data-mark="at0/turns/own/pivot/disc" d="M203.318 140.909C203.318 139.152 201.894 137.727 200.136 137.727C198.379 137.727 196.955 139.152 196.955 140.909C196.955 142.666 198.379 144.091 200.136 144.091C201.894 144.091 203.318 142.666 203.318 140.909Z" fill="var(--ember, #c2410c)"/><path data-mark="at0/turns/own/rider/ell" d="M172.864 177.273C191.045 177.273 209.227 177.273 227.409 177.273C227.409 171.212 227.409 165.152 227.409 159.091C215.288 159.091 203.167 159.091 191.045 159.091C191.045 140.909 191.045 122.727 191.045 104.545C184.985 104.545 178.924 104.545 172.864 104.545C172.864 128.788 172.864 153.03 172.864 177.273Z" fill="var(--peach, #fdba74)" stroke="var(--deep, #0369a1)" stroke-width="1.818"/><text data-mark="at0/turns/own/rider/word" x="227.409" y="104.545" font-family="sans-serif" font-size="21.734" fill="var(--ink, #1b1b1b)" text-anchor="middle">label</text><text data-mark="at0/turns/own/label" x="200.136" y="275" font-family="sans-serif" font-size="25.078" fill="var(--ink, #1b1b1b)" text-anchor="middle">about its own middle</text><path data-mark="at0/turns/given/pivot/disc" d="M439.682 140.909C439.682 139.152 438.257 137.727 436.5 137.727C434.743 137.727 433.318 139.152 433.318 140.909C433.318 142.666 434.743 144.091 436.5 144.091C438.257 144.091 439.682 142.666 439.682 140.909Z" fill="var(--ember, #c2410c)"/><path data-mark="at0/turns/given/rider/ell" d="M481.955 177.273C500.136 177.273 518.318 177.273 536.5 177.273C536.5 171.212 536.5 165.152 536.5 159.091C524.379 159.091 512.258 159.091 500.136 159.091C500.136 140.909 500.136 122.727 500.136 104.545C494.076 104.545 488.015 104.545 481.955 104.545C481.955 128.788 481.955 153.03 481.955 177.273Z" fill="var(--peach, #fdba74)" stroke="var(--deep, #0369a1)" stroke-width="1.818"/><text data-mark="at0/turns/given/rider/word" x="536.5" y="104.545" font-family="sans-serif" font-size="21.734" fill="var(--ink, #1b1b1b)" text-anchor="middle">label</text><text data-mark="at0/turns/given/label" x="436.5" y="275" font-family="sans-serif" font-size="25.078" fill="var(--ink, #1b1b1b)" text-anchor="middle">about a point it is given</text><path data-mark="at1/turns/own/pivot/disc" d="M839.682 140.909C839.682 139.152 838.257 137.727 836.5 137.727C834.743 137.727 833.318 139.152 833.318 140.909C833.318 142.666 834.743 144.091 836.5 144.091C838.257 144.091 839.682 142.666 839.682 140.909Z" fill="var(--ember, #c2410c)"/><path data-mark="at1/turns/own/rider/ell" d="M872.864 168.182C872.864 150 872.864 131.818 872.864 113.636C866.803 113.636 860.742 113.636 854.682 113.636C854.682 125.758 854.682 137.879 854.682 150C836.5 150 818.318 150 800.136 150C800.136 156.061 800.136 162.121 800.136 168.182C824.379 168.182 848.621 168.182 872.864 168.182Z" fill="var(--peach, #fdba74)" stroke="var(--deep, #0369a1)" stroke-width="1.818"/><text data-mark="at1/turns/own/rider/word" x="800.136" y="113.636" font-family="sans-serif" font-size="21.734" fill="var(--ink, #1b1b1b)" text-anchor="middle">label</text><text data-mark="at1/turns/own/label" x="836.5" y="275" font-family="sans-serif" font-size="25.078" fill="var(--ink, #1b1b1b)" text-anchor="middle">about its own middle</text><path data-mark="at1/turns/given/pivot/disc" d="M1076.045 140.909C1076.045 139.152 1074.621 137.727 1072.864 137.727C1071.106 137.727 1069.682 139.152 1069.682 140.909C1069.682 142.666 1071.106 144.091 1072.864 144.091C1074.621 144.091 1076.045 142.666 1076.045 140.909Z" fill="var(--ember, #c2410c)"/><path data-mark="at1/turns/given/rider/ell" d="M1109.227 95.455C1109.227 77.273 1109.227 59.091 1109.227 40.909C1103.167 40.909 1097.106 40.909 1091.045 40.909C1091.045 53.03 1091.045 65.152 1091.045 77.273C1072.864 77.273 1054.682 77.273 1036.5 77.273C1036.5 83.333 1036.5 89.394 1036.5 95.455C1060.742 95.455 1084.985 95.455 1109.227 95.455Z" fill="var(--peach, #fdba74)" stroke="var(--deep, #0369a1)" stroke-width="1.818"/><text data-mark="at1/turns/given/rider/word" x="1036.5" y="40.909" font-family="sans-serif" font-size="21.734" fill="var(--ink, #1b1b1b)" text-anchor="middle">label</text><text data-mark="at1/turns/given/label" x="1072.864" y="275" font-family="sans-serif" font-size="25.078" fill="var(--ink, #1b1b1b)" text-anchor="middle">about a point it is given</text><path data-mark="at2/turns/own/pivot/disc" d="M203.318 440.909C203.318 439.152 201.894 437.727 200.136 437.727C198.379 437.727 196.955 439.152 196.955 440.909C196.955 442.666 198.379 444.091 200.136 444.091C201.894 444.091 203.318 442.666 203.318 440.909Z" fill="var(--ember, #c2410c)"/><path data-mark="at2/turns/own/rider/ell" d="M227.409 404.545C209.227 404.545 191.045 404.545 172.864 404.545C172.864 410.606 172.864 416.667 172.864 422.727C184.985 422.727 197.106 422.727 209.227 422.727C209.227 440.909 209.227 459.091 209.227 477.273C215.288 477.273 221.348 477.273 227.409 477.273C227.409 453.03 227.409 428.788 227.409 404.545Z" fill="var(--peach, #fdba74)" stroke="var(--deep, #0369a1)" stroke-width="1.818"/><text data-mark="at2/turns/own/rider/word" x="172.864" y="477.273" font-family="sans-serif" font-size="21.734" fill="var(--ink, #1b1b1b)" text-anchor="middle">label</text><text data-mark="at2/turns/own/label" x="200.136" y="575" font-family="sans-serif" font-size="25.078" fill="var(--ink, #1b1b1b)" text-anchor="middle">about its own middle</text><path data-mark="at2/turns/given/pivot/disc" d="M439.682 440.909C439.682 439.152 438.257 437.727 436.5 437.727C434.743 437.727 433.318 439.152 433.318 440.909C433.318 442.666 434.743 444.091 436.5 444.091C438.257 444.091 439.682 442.666 439.682 440.909Z" fill="var(--ember, #c2410c)"/><path data-mark="at2/turns/given/rider/ell" d="M391.045 404.545C372.864 404.545 354.682 404.545 336.5 404.545C336.5 410.606 336.5 416.667 336.5 422.727C348.621 422.727 360.742 422.727 372.864 422.727C372.864 440.909 372.864 459.091 372.864 477.273C378.924 477.273 384.985 477.273 391.045 477.273C391.045 453.03 391.045 428.788 391.045 404.545Z" fill="var(--peach, #fdba74)" stroke="var(--deep, #0369a1)" stroke-width="1.818"/><text data-mark="at2/turns/given/rider/word" x="336.5" y="477.273" font-family="sans-serif" font-size="21.734" fill="var(--ink, #1b1b1b)" text-anchor="middle">label</text><text data-mark="at2/turns/given/label" x="436.5" y="575" font-family="sans-serif" font-size="25.078" fill="var(--ink, #1b1b1b)" text-anchor="middle">about a point it is given</text><path data-mark="at3/turns/own/pivot/disc" d="M839.682 440.909C839.682 439.152 838.257 437.727 836.5 437.727C834.743 437.727 833.318 439.152 833.318 440.909C833.318 442.666 834.743 444.091 836.5 444.091C838.257 444.091 839.682 442.666 839.682 440.909Z" fill="var(--ember, #c2410c)"/><path data-mark="at3/turns/own/rider/ell" d="M800.136 413.636C800.136 431.818 800.136 450 800.136 468.182C806.197 468.182 812.258 468.182 818.318 468.182C818.318 456.061 818.318 443.939 818.318 431.818C836.5 431.818 854.682 431.818 872.864 431.818C872.864 425.758 872.864 419.697 872.864 413.636C848.621 413.636 824.379 413.636 800.136 413.636Z" fill="var(--peach, #fdba74)" stroke="var(--deep, #0369a1)" stroke-width="1.818"/><text data-mark="at3/turns/own/rider/word" x="872.864" y="468.182" font-family="sans-serif" font-size="21.734" fill="var(--ink, #1b1b1b)" text-anchor="middle">label</text><text data-mark="at3/turns/own/label" x="836.5" y="575" font-family="sans-serif" font-size="25.078" fill="var(--ink, #1b1b1b)" text-anchor="middle">about its own middle</text><path data-mark="at3/turns/given/pivot/disc" d="M1076.045 440.909C1076.045 439.152 1074.621 437.727 1072.864 437.727C1071.106 437.727 1069.682 439.152 1069.682 440.909C1069.682 442.666 1071.106 444.091 1072.864 444.091C1074.621 444.091 1076.045 442.666 1076.045 440.909Z" fill="var(--ember, #c2410c)"/><path data-mark="at3/turns/given/rider/ell" d="M1036.5 486.364C1036.5 504.545 1036.5 522.727 1036.5 540.909C1042.561 540.909 1048.621 540.909 1054.682 540.909C1054.682 528.788 1054.682 516.667 1054.682 504.545C1072.864 504.545 1091.045 504.545 1109.227 504.545C1109.227 498.485 1109.227 492.424 1109.227 486.364C1084.985 486.364 1060.742 486.364 1036.5 486.364Z" fill="var(--peach, #fdba74)" stroke="var(--deep, #0369a1)" stroke-width="1.818"/><text data-mark="at3/turns/given/rider/word" x="1109.227" y="540.909" font-family="sans-serif" font-size="21.734" fill="var(--ink, #1b1b1b)" text-anchor="middle">label</text><text data-mark="at3/turns/given/label" x="1072.864" y="575" font-family="sans-serif" font-size="25.078" fill="var(--ink, #1b1b1b)" text-anchor="middle">about a point it is given</text></svg>
