<svg xmlns="http://www.w3.org/2000/svg" viewBox="0 0 1080 600"><style>:root{--ink:#1b1b1b;--mist:#b4b9c0;--slate:#6b7280;--ember:#c2410c;--amber:#b45309;--peach:#fdba74;--deep:#0369a1;--sky:#38bdf8;--haze:#bfd7e6;--steel:#7fb2cc;--frost:#e0f2fe;--moss:#15803d}@media(prefers-color-scheme:dark){:root{--ink:#ebebeb;--mist:#3a414c;--slate:#9aa3ae;--ember:#f97316;--amber:#eba043;--peach:#7a4a1c;--deep:#4cb8ea;--sky:#1f6f96;--haze:#33505f;--steel:#41708a;--frost:#17293b;--moss:#3ec46d}}</style><path data-mark="solid/body/hill/2-0/run" d="M568.667 264.107C560.543 272.832 552.418 281.556 544.294 290.28C548.39 283.009 552.487 275.738 556.583 268.467C565.155 259.255 573.727 250.044 582.299 240.832C577.755 248.59 573.211 256.349 568.667 264.107Z" fill="rgb(219, 205, 185)"/><path data-mark="solid/body/hill/3-0/run" d="M544.294 290.28C536.175 297.038 528.056 303.795 519.937 310.553C523.604 303.63 527.271 296.707 530.939 289.784C539.487 282.678 548.035 275.572 556.583 268.467C552.487 275.738 548.39 283.009 544.294 290.28Z" fill="rgb(220, 206, 186)"/><path data-mark="solid/body/hill/1-0/run" d="M593.372 231.657C585.137 242.474 576.902 253.291 568.667 264.107C573.211 256.349 577.755 248.59 582.299 240.832C591.013 229.374 599.727 217.917 608.441 206.459C603.418 214.859 598.395 223.258 593.372 231.657Z" fill="rgb(217, 203, 183)"/><path data-mark="solid/body/hill/4-0/run" d="M519.937 310.553C511.718 315.419 503.498 320.285 495.279 325.15C498.524 318.444 501.77 311.738 505.015 305.032C513.656 299.949 522.297 294.866 530.939 289.784C527.271 296.707 523.604 303.63 519.937 310.553Z" fill="rgb(221, 207, 187)"/><path data-mark="solid/body/hill/0-0/run" d="M618.742 192.381C610.285 205.473 601.829 218.565 593.372 231.657C598.395 223.258 603.418 214.859 608.441 206.459C617.42 192.55 626.399 178.642 635.378 164.733C629.833 173.949 624.287 183.165 618.742 192.381Z" fill="rgb(216, 202, 182)"/><path data-mark="solid/body/hill/5-0/run" d="M495.279 325.15C486.849 328.151 478.42 331.151 469.99 334.151C472.809 327.532 475.629 320.913 478.448 314.294C487.304 311.206 496.16 308.119 505.015 305.032C501.77 311.738 498.524 318.444 495.279 325.15Z" fill="rgb(221, 207, 187)"/><path data-mark="solid/body/hill/6-0/run" d="M469.99 334.151C461.23 335.263 452.471 336.375 443.711 337.487C446.087 330.821 448.463 324.155 450.839 317.489C460.042 316.424 469.245 315.359 478.448 314.294C475.629 320.913 472.809 327.532 469.99 334.151Z" fill="rgb(221, 207, 187)"/><path data-mark="solid/body/hill/7-0/run" d="M443.711 337.487C434.487 336.636 425.262 335.785 416.038 334.934C417.938 328.074 419.838 321.215 421.739 314.356C431.439 315.4 441.139 316.445 450.839 317.489C448.463 324.155 446.087 330.821 443.711 337.487Z" fill="rgb(221, 207, 187)"/><path data-mark="solid/body/hill/2-1/run" d="M582.299 240.832C573.727 250.044 565.155 259.255 556.583 268.467C561.098 262.617 565.613 256.767 570.127 250.917C579.156 241.213 588.185 231.508 597.214 221.804C592.242 228.146 587.271 234.489 582.299 240.832Z" fill="rgb(221, 207, 187)"/><path data-mark="solid/body/hill/3-1/run" d="M556.583 268.467C548.035 275.572 539.487 282.678 530.939 289.784C535.019 284.29 539.1 278.795 543.181 273.301C552.163 265.84 561.145 258.379 570.127 250.917C565.613 256.767 561.098 262.617 556.583 268.467Z" fill="rgb(223, 209, 189)"/><path data-mark="solid/body/flow/0-0-0/shaft" d="M610.238 168.264C603.122 167.41 596.006 166.555 588.89 165.701" fill="none" stroke="var(--deep, #0369a1)" stroke-width="1"/><path data-mark="solid/body/flow/0-0-0/head" d="M584.919 165.224C586.195 165.78 587.471 166.336 588.747 166.892C588.842 166.098 588.938 165.304 589.033 164.51C587.662 164.748 586.29 164.986 584.919 165.224Z" fill="var(--deep, #0369a1)"/><path data-mark="solid/body/hill/1-1/run" d="M608.441 206.459C599.727 217.917 591.013 229.374 582.299 240.832C587.271 234.489 592.242 228.146 597.214 221.804C606.42 209.7 615.626 197.596 624.832 185.493C619.368 192.482 613.905 199.47 608.441 206.459Z" fill="rgb(219, 205, 185)"/><path data-mark="solid/body/hill/4-1/run" d="M530.939 289.784C522.297 294.866 513.656 299.949 505.015 305.032C508.673 299.764 512.331 294.496 515.988 289.228C525.053 283.919 534.117 278.61 543.181 273.301C539.1 278.795 535.019 284.29 530.939 289.784Z" fill="rgb(224, 210, 190)"/><path data-mark="solid/body/hill/0-1/run" d="M635.378 164.733C626.399 178.642 617.42 192.55 608.441 206.459C613.905 199.47 619.368 192.482 624.832 185.493C634.354 170.761 643.876 156.03 653.398 141.299C647.391 149.11 641.385 156.921 635.378 164.733Z" fill="rgb(217, 203, 183)"/><path data-mark="solid/body/hill/5-1/run" d="M505.015 305.032C496.16 308.119 487.304 311.206 478.448 314.294C481.68 309.125 484.913 303.957 488.145 298.789C497.426 295.602 506.707 292.415 515.988 289.228C512.331 294.496 508.673 299.764 505.015 305.032Z" fill="rgb(225, 211, 191)"/><path data-mark="solid/body/hill/8-0/run" d="M416.038 334.934C406.19 331.984 396.342 329.033 386.494 326.083C387.868 318.864 389.242 311.645 390.616 304.426C400.99 307.736 411.364 311.046 421.739 314.356C419.838 321.215 417.938 328.074 416.038 334.934Z" fill="rgb(220, 206, 186)"/><path data-mark="solid/body/hill/6-1/run" d="M478.448 314.294C469.245 315.359 460.042 316.424 450.839 317.489C453.631 312.288 456.422 307.087 459.214 301.887C468.858 300.854 478.501 299.821 488.145 298.789C484.913 303.957 481.68 309.125 478.448 314.294Z" fill="rgb(225, 211, 191)"/><path data-mark="solid/body/flow/1-0-0/shaft" d="M557.671 177.078C551.962 175.745 546.252 174.412 540.543 173.079" fill="none" stroke="var(--deep, #0369a1)" stroke-width="1"/><path data-mark="solid/body/flow/1-0-0/head" d="M536.648 172.169C537.855 172.862 539.063 173.555 540.27 174.247C540.452 173.468 540.634 172.689 540.816 171.91C539.427 171.997 538.037 172.083 536.648 172.169Z" fill="var(--deep, #0369a1)"/><path data-mark="solid/body/pane/0-0/run" d="M620.721 155.446C595.374 159.54 570.026 163.635 544.678 167.729C558.527 177.694 572.375 187.658 586.224 197.623C613.349 192.7 640.475 187.776 667.6 182.853C651.974 173.717 636.348 164.582 620.721 155.446Z" fill="var(--frost, #e0f2fe)" stroke="var(--sky, #38bdf8)" stroke-width="0.8"/><path data-mark="solid/body/hill/9-0/run" d="M386.494 326.083C375.832 320.825 365.169 315.566 354.506 310.308C355.279 302.53 356.052 294.753 356.825 286.976C368.089 292.793 379.352 298.609 390.616 304.426C389.242 311.645 387.868 318.864 386.494 326.083Z" fill="rgb(219, 205, 185)"/><path data-mark="solid/body/hill/7-1/run" d="M450.839 317.489C441.139 316.445 431.439 315.4 421.739 314.356C424.058 308.979 426.378 303.601 428.697 298.224C438.87 299.445 449.042 300.666 459.214 301.887C456.422 307.087 453.631 312.288 450.839 317.489Z" fill="rgb(224, 210, 190)"/><path data-mark="solid/body/hill/2-2/run" d="M597.214 221.804C588.185 231.508 579.156 241.213 570.127 250.917C575.062 246.809 579.996 242.701 584.93 238.592C594.419 228.396 603.908 218.2 613.397 208.004C608.002 212.604 602.608 217.204 597.214 221.804Z" fill="rgb(223, 209, 189)"/><path data-mark="solid/body/hill/3-2/run" d="M570.127 250.917C561.145 258.379 552.163 265.84 543.181 273.301C547.683 269.553 552.184 265.804 556.685 262.055C566.1 254.234 575.515 246.413 584.93 238.592C579.996 242.701 575.062 246.809 570.127 250.917Z" fill="rgb(226, 212, 192)"/><path data-mark="solid/body/hill/1-2/run" d="M624.832 185.493C615.626 197.596 606.42 209.7 597.214 221.804C602.608 217.204 608.002 212.604 613.397 208.004C623.104 195.261 632.81 182.517 642.517 169.774C636.622 175.014 630.727 180.253 624.832 185.493Z" fill="rgb(221, 207, 187)"/><path data-mark="solid/body/hill/4-2/run" d="M543.181 273.301C534.117 278.61 525.053 283.919 515.988 289.228C520.07 285.717 524.153 282.205 528.235 278.693C537.718 273.147 547.202 267.601 556.685 262.055C552.184 265.804 547.683 269.553 543.181 273.301Z" fill="rgb(228, 214, 194)"/><path data-mark="solid/body/flow/2-0-0/shaft" d="M501.956 186.42C498.612 184.676 495.268 182.933 491.925 181.189" fill="none" stroke="var(--deep, #0369a1)" stroke-width="1"/><path data-mark="solid/body/flow/2-0-0/head" d="M488.378 179.34C489.375 180.311 490.373 181.282 491.37 182.253C491.74 181.544 492.11 180.835 492.48 180.125C491.112 179.864 489.745 179.602 488.378 179.34Z" fill="var(--deep, #0369a1)"/><path data-mark="solid/body/hill/0-2/run" d="M653.398 141.299C643.876 156.03 634.354 170.761 624.832 185.493C630.727 180.253 636.622 175.014 642.517 169.774C652.596 154.23 662.675 138.687 672.754 123.143C666.302 129.195 659.85 135.247 653.398 141.299Z" fill="rgb(219, 205, 185)"/><path data-mark="solid/body/hill/5-2/run" d="M515.988 289.228C506.707 292.415 497.426 295.602 488.145 298.789C491.81 295.393 495.474 291.998 499.139 288.602C508.838 285.299 518.536 281.996 528.235 278.693C524.153 282.205 520.07 285.717 515.988 289.228Z" fill="rgb(229, 215, 195)"/><path data-mark="solid/body/flow/0-1-0/shaft" d="M641.29 187.628C633.848 187.357 626.406 187.086 618.964 186.815" fill="none" stroke="var(--deep, #0369a1)" stroke-width="1"/><path data-mark="solid/body/flow/0-1-0/head" d="M614.967 186.67C616.285 187.118 617.603 187.566 618.921 188.015C618.95 187.215 618.979 186.416 619.008 185.616C617.661 185.967 616.314 186.319 614.967 186.67Z" fill="var(--deep, #0369a1)"/><path data-mark="solid/body/hill/8-1/run" d="M421.739 314.356C411.364 311.046 400.99 307.736 390.616 304.426C392.413 298.707 394.209 292.987 396.006 287.267C406.903 290.919 417.8 294.572 428.697 298.224C426.378 303.601 424.058 308.979 421.739 314.356Z" fill="rgb(223, 209, 189)"/><path data-mark="solid/body/pane/1-0/run" d="M544.678 167.729C517.091 172.185 489.503 176.641 461.916 181.097C473.582 192.009 485.247 202.921 496.913 213.833C526.683 208.43 556.454 203.027 586.224 197.623C572.375 187.658 558.527 177.694 544.678 167.729Z" fill="var(--frost, #e0f2fe)" stroke="var(--sky, #38bdf8)" stroke-width="0.8"/><path data-mark="solid/body/hill/6-2/run" d="M488.145 298.789C478.501 299.821 468.858 300.854 459.214 301.887C462.448 298.482 465.683 295.078 468.917 291.674C478.991 290.65 489.065 289.626 499.139 288.602C495.474 291.998 491.81 295.393 488.145 298.789Z" fill="rgb(229, 215, 195)"/><path data-mark="solid/body/hill/10-0/run" d="M354.506 310.308C342.791 302.437 331.075 294.567 319.359 286.697C319.424 278.114 319.488 269.531 319.553 260.948C331.977 269.624 344.401 278.3 356.825 286.976C356.052 294.753 355.279 302.53 354.506 310.308Z" fill="rgb(217, 203, 183)"/><path data-mark="solid/body/flow/3-0-0/shaft" d="M442.801 196.339C442.156 194.578 441.511 192.817 440.865 191.056" fill="none" stroke="var(--deep, #0369a1)" stroke-width="1"/><path data-mark="solid/body/flow/3-0-0/head" d="M439.489 187.3C439.572 188.69 439.655 190.079 439.739 191.469C440.49 191.194 441.241 190.919 441.992 190.643C441.158 189.529 440.324 188.415 439.489 187.3Z" fill="var(--deep, #0369a1)"/><path data-mark="solid/body/hill/2-3/run" d="M613.397 208.004C603.908 218.2 594.419 228.396 584.93 238.592C590.271 236.56 595.613 234.529 600.954 232.497C610.9 221.82 620.845 211.142 630.791 200.465C624.993 202.978 619.195 205.491 613.397 208.004Z" fill="rgb(226, 212, 192)"/><path data-mark="solid/body/hill/3-3/run" d="M584.93 238.592C575.515 246.413 566.1 254.234 556.685 262.055C561.601 260.383 566.517 258.711 571.433 257.039C581.273 248.859 591.114 240.678 600.954 232.497C595.613 234.529 590.271 236.56 584.93 238.592Z" fill="rgb(229, 215, 195)"/><path data-mark="solid/body/flow/1-1-0/shaft" d="M586.224 197.623C580.052 196.803 573.881 195.982 567.709 195.162" fill="none" stroke="var(--deep, #0369a1)" stroke-width="1"/><path data-mark="solid/body/flow/1-1-0/head" d="M563.744 194.635C565.013 195.207 566.282 195.779 567.551 196.351C567.656 195.558 567.762 194.765 567.867 193.972C566.493 194.193 565.118 194.414 563.744 194.635Z" fill="var(--deep, #0369a1)"/><path data-mark="solid/body/hill/7-2/run" d="M459.214 301.887C449.042 300.666 438.87 299.445 428.697 298.224C431.472 294.673 434.247 291.123 437.022 287.572C447.654 288.939 458.285 290.306 468.917 291.674C465.683 295.078 462.448 298.482 459.214 301.887Z" fill="rgb(228, 214, 194)"/><path data-mark="solid/body/hill/1-3/run" d="M642.517 169.774C632.81 182.517 623.104 195.261 613.397 208.004C619.195 205.491 624.993 202.978 630.791 200.465C641 187.102 651.209 173.739 661.419 160.377C655.118 163.509 648.818 166.642 642.517 169.774Z" fill="rgb(223, 209, 189)"/><path data-mark="solid/body/hill/4-3/run" d="M556.685 262.055C547.202 267.601 537.718 273.147 528.235 278.693C532.744 277.269 537.253 275.845 541.762 274.42C551.652 268.627 561.542 262.833 571.433 257.039C566.517 258.711 561.601 260.383 556.685 262.055Z" fill="rgb(231, 217, 197)"/><path data-mark="solid/body/hill/9-1/run" d="M390.616 304.426C379.352 298.609 368.089 292.793 356.825 286.976C358.023 280.713 359.22 274.45 360.417 268.187C372.28 274.547 384.143 280.907 396.006 287.267C394.209 292.987 392.413 298.707 390.616 304.426Z" fill="rgb(221, 207, 187)"/><path data-mark="solid/body/hill/0-3/run" d="M672.754 123.143C662.675 138.687 652.596 154.23 642.517 169.774C648.818 166.642 655.118 163.509 661.419 160.377C672.062 144.05 682.705 127.723 693.349 111.396C686.484 115.312 679.619 119.227 672.754 123.143Z" fill="rgb(220, 206, 186)"/><path data-mark="solid/body/hill/5-3/run" d="M528.235 278.693C518.536 281.996 508.838 285.299 499.139 288.602C503.246 287.316 507.353 286.031 511.46 284.745C521.56 281.303 531.661 277.862 541.762 274.42C537.253 275.845 532.744 277.269 528.235 278.693Z" fill="rgb(233, 219, 199)"/><path data-mark="solid/body/flow/4-0-0/shaft" d="M379.878 206.89C381.614 204.51 383.35 202.13 385.086 199.75" fill="none" stroke="var(--deep, #0369a1)" stroke-width="1"/><path data-mark="solid/body/flow/4-0-0/head" d="M387.443 196.519C386.334 197.36 385.226 198.201 384.117 199.043C384.763 199.514 385.409 199.986 386.055 200.457C386.518 199.144 386.981 197.831 387.443 196.519Z" fill="var(--deep, #0369a1)"/><path data-mark="solid/body/pane/2-0/run" d="M461.916 181.097C431.779 185.965 401.641 190.833 371.504 195.701C380.486 207.702 389.467 219.704 398.448 231.705C431.27 225.748 464.092 219.791 496.913 213.833C485.247 202.921 473.582 192.009 461.916 181.097Z" fill="var(--frost, #e0f2fe)" stroke="var(--sky, #38bdf8)" stroke-width="0.8"/><path data-mark="solid/body/hill/11-0/run" d="M319.359 286.697C306.283 275.786 293.207 264.875 280.131 253.964C279.336 244.255 278.54 234.546 277.745 224.837C291.681 236.874 305.617 248.911 319.553 260.948C319.488 269.531 319.424 278.114 319.359 286.697Z" fill="rgb(216, 202, 182)"/><path data-mark="solid/body/flow/2-1-0/shaft" d="M527.635 208.257C524.165 206.823 520.694 205.388 517.223 203.954" fill="none" stroke="var(--deep, #0369a1)" stroke-width="1"/><path data-mark="solid/body/flow/2-1-0/head" d="M513.526 202.426C514.606 203.305 515.685 204.184 516.764 205.063C517.07 204.324 517.376 203.584 517.681 202.845C516.296 202.705 514.911 202.566 513.526 202.426Z" fill="var(--deep, #0369a1)"/><path data-mark="solid/body/hill/8-2/run" d="M428.697 298.224C417.8 294.572 406.903 290.919 396.006 287.267C398.272 283.41 400.538 279.553 402.804 275.696C414.21 279.654 425.616 283.613 437.022 287.572C434.247 291.123 431.472 294.673 428.697 298.224Z" fill="rgb(226, 212, 192)"/><path data-mark="solid/body/pane/0-1/run" d="M667.6 182.853C640.475 187.776 613.349 192.7 586.224 197.623C603.109 209.772 619.993 221.922 636.878 234.071C666.003 228.038 695.127 222.006 724.252 215.973C705.368 204.933 686.484 193.893 667.6 182.853Z" fill="var(--frost, #e0f2fe)" stroke="var(--sky, #38bdf8)" stroke-width="0.8"/><path data-mark="solid/body/hill/6-3/run" d="M499.139 288.602C489.065 289.626 478.991 290.65 468.917 291.674C472.613 290.413 476.309 289.152 480.005 287.891C490.49 286.842 500.975 285.794 511.46 284.745C507.353 286.031 503.246 287.316 499.139 288.602Z" fill="rgb(233, 219, 199)"/><path data-mark="solid/body/hill/10-1/run" d="M356.825 286.976C344.401 278.3 331.977 269.624 319.553 260.948C320.04 253.888 320.526 246.829 321.012 239.769C334.147 249.242 347.282 258.714 360.417 268.187C359.22 274.45 358.023 280.713 356.825 286.976Z" fill="rgb(219, 205, 185)"/><path data-mark="solid/body/flow/0-2-0/shaft" d="M676.581 209.636C669.579 210.337 662.578 211.039 655.576 211.741" fill="none" stroke="var(--deep, #0369a1)" stroke-width="1"/><path data-mark="solid/body/flow/0-2-0/head" d="M651.596 212.14C652.963 212.405 654.329 212.67 655.696 212.935C655.616 212.139 655.536 211.343 655.457 210.547C654.17 211.078 652.883 211.609 651.596 212.14Z" fill="var(--deep, #0369a1)"/><path data-mark="solid/body/hill/2-4/run" d="M630.791 200.465C620.845 211.142 610.9 221.82 600.954 232.497C606.674 232.878 612.395 233.259 618.115 233.639C628.506 222.501 638.897 211.363 649.287 200.225C643.122 200.305 636.956 200.385 630.791 200.465Z" fill="rgb(228, 214, 194)"/><path data-mark="solid/body/hill/3-4/run" d="M600.954 232.497C591.114 240.678 581.273 248.859 571.433 257.039C576.744 257.775 582.054 258.511 587.365 259.246C597.615 250.711 607.865 242.175 618.115 233.639C612.395 233.259 606.674 232.878 600.954 232.497Z" fill="rgb(231, 217, 197)"/><path data-mark="solid/body/flow/5-0-0/shaft" d="M312.814 218.135C317.461 215.126 322.108 212.118 326.756 209.11" fill="none" stroke="var(--deep, #0369a1)" stroke-width="1"/><path data-mark="solid/body/flow/5-0-0/head" d="M330.114 206.936C328.777 207.325 327.44 207.714 326.104 208.102C326.538 208.774 326.973 209.446 327.408 210.117C328.31 209.057 329.212 207.997 330.114 206.936Z" fill="var(--deep, #0369a1)"/><path data-mark="solid/body/hill/1-4/run" d="M661.419 160.377C651.209 173.739 641 187.102 630.791 200.465C636.956 200.385 643.122 200.305 649.287 200.225C659.992 186.279 670.697 172.333 681.402 158.387C674.741 159.05 668.08 159.714 661.419 160.377Z" fill="rgb(224, 210, 190)"/><path data-mark="solid/body/hill/4-4/run" d="M571.433 257.039C561.542 262.833 551.652 268.627 541.762 274.42C546.685 275.415 551.609 276.409 556.533 277.404C566.81 271.351 577.088 265.299 587.365 259.246C582.054 258.511 576.744 257.775 571.433 257.039Z" fill="rgb(235, 221, 201)"/><path data-mark="solid/body/hill/7-3/run" d="M468.917 291.674C458.285 290.306 447.654 288.939 437.022 287.572C440.281 286.211 443.541 284.85 446.8 283.489C457.868 284.957 468.936 286.424 480.005 287.891C476.309 289.152 472.613 290.413 468.917 291.674Z" fill="rgb(231, 217, 197)"/><path data-mark="solid/body/flow/3-1-0/shaft" d="M465.176 219.594C465.049 218.096 464.922 216.599 464.795 215.102" fill="none" stroke="var(--deep, #0369a1)" stroke-width="1"/><path data-mark="solid/body/flow/3-1-0/head" d="M464.458 211.116C464.172 212.478 463.886 213.841 463.6 215.203C464.397 215.135 465.194 215.068 465.991 215C465.48 213.706 464.969 212.411 464.458 211.116Z" fill="var(--deep, #0369a1)"/><path data-mark="solid/body/hill/0-4/run" d="M693.349 111.396C682.705 127.723 672.062 144.05 661.419 160.377C668.08 159.714 674.741 159.05 681.402 158.387C692.609 141.33 703.815 124.272 715.022 107.214C707.797 108.608 700.573 110.002 693.349 111.396Z" fill="rgb(221, 207, 187)"/><path data-mark="solid/body/hill/5-4/run" d="M541.762 274.42C531.661 277.862 521.56 281.303 511.46 284.745C516.006 285.905 520.552 287.066 525.099 288.227C535.577 284.619 546.055 281.011 556.533 277.404C551.609 276.409 546.685 275.415 541.762 274.42Z" fill="rgb(237, 223, 203)"/><path data-mark="solid/body/hill/9-2/run" d="M396.006 287.267C384.143 280.907 372.28 274.547 360.417 268.187C362.098 263.827 363.779 259.468 365.459 255.109C377.907 261.971 390.356 268.833 402.804 275.696C400.538 279.553 398.272 283.41 396.006 287.267Z" fill="rgb(223, 209, 189)"/><path data-mark="solid/body/pane/3-0/run" d="M371.504 195.701C338.446 201.04 305.388 206.38 272.331 211.719C278.002 224.982 283.674 238.245 289.346 251.508C325.713 244.907 362.081 238.306 398.448 231.705C389.467 219.704 380.486 207.702 371.504 195.701Z" fill="var(--frost, #e0f2fe)" stroke="var(--sky, #38bdf8)" stroke-width="0.8"/><path data-mark="solid/body/flow/1-2-0/shaft" d="M618.803 221.065C612.942 221.348 607.081 221.631 601.22 221.914" fill="none" stroke="var(--deep, #0369a1)" stroke-width="1"/><path data-mark="solid/body/flow/1-2-0/head" d="M597.225 222.107C598.576 222.442 599.927 222.777 601.278 223.113C601.239 222.314 601.201 221.515 601.162 220.715C599.85 221.179 598.537 221.643 597.225 222.107Z" fill="var(--deep, #0369a1)"/><path data-mark="solid/body/hill/6-4/run" d="M511.46 284.745C500.975 285.794 490.49 286.842 480.005 287.891C484.169 289.123 488.334 290.354 492.498 291.585C503.365 290.466 514.232 289.346 525.099 288.227C520.552 287.066 516.006 285.905 511.46 284.745Z" fill="rgb(237, 223, 203)"/><path data-mark="solid/body/pane/1-1/run" d="M586.224 197.623C556.454 203.027 526.683 208.43 496.913 213.833C511.275 227.268 525.638 240.702 540 254.137C572.293 247.448 604.585 240.759 636.878 234.071C619.993 221.922 603.109 209.772 586.224 197.623Z" fill="var(--frost, #e0f2fe)" stroke="var(--sky, #38bdf8)" stroke-width="0.8"/><path data-mark="solid/body/hill/8-3/run" d="M437.022 287.572C425.616 283.613 414.21 279.654 402.804 275.696C405.58 274.088 408.357 272.48 411.133 270.872C423.022 275.078 434.911 279.284 446.8 283.489C443.541 284.85 440.281 286.211 437.022 287.572Z" fill="rgb(229, 215, 195)"/><path data-mark="solid/body/hill/2-5/run" d="M649.287 200.225C638.897 211.363 628.506 222.501 618.115 233.639C624.168 236.751 630.221 239.862 636.274 242.973C647.089 231.406 657.905 219.839 668.72 208.273C662.243 205.59 655.765 202.908 649.287 200.225Z" fill="rgb(229, 215, 195)"/><path data-mark="solid/body/hill/3-5/run" d="M618.115 233.639C607.865 242.175 597.615 250.711 587.365 259.246C593.033 262.702 598.702 266.157 604.37 269.612C615.004 260.733 625.639 251.853 636.274 242.973C630.221 239.862 624.168 236.751 618.115 233.639Z" fill="rgb(233, 219, 199)"/><path data-mark="solid/body/hill/11-1/run" d="M319.553 260.948C305.617 248.911 291.681 236.874 277.745 224.837C277.358 216.647 276.972 208.458 276.585 200.269C291.394 213.436 306.203 226.603 321.012 239.769C320.526 246.829 320.04 253.888 319.553 260.948Z" fill="rgb(217, 203, 183)"/><path data-mark="solid/body/flow/4-1-0/shaft" d="M398.448 231.705C401.547 229.234 404.646 226.763 407.744 224.292" fill="none" stroke="var(--deep, #0369a1)" stroke-width="1"/><path data-mark="solid/body/flow/4-1-0/head" d="M410.872 221.799C409.58 222.317 408.288 222.836 406.996 223.354C407.495 223.98 407.994 224.605 408.493 225.231C409.286 224.087 410.079 222.943 410.872 221.799Z" fill="var(--deep, #0369a1)"/><path data-mark="solid/body/hill/1-5/run" d="M681.402 158.387C670.697 172.333 659.992 186.279 649.287 200.225C655.765 202.908 662.243 205.59 668.72 208.273C679.904 193.798 691.088 179.322 702.272 164.847C695.315 162.694 688.359 160.541 681.402 158.387Z" fill="rgb(225, 211, 191)"/><path data-mark="solid/body/hill/4-5/run" d="M587.365 259.246C577.088 265.299 566.81 271.351 556.533 277.404C561.843 281.129 567.154 284.854 572.464 288.579C583.099 282.257 593.735 275.935 604.37 269.612C598.702 266.157 593.033 262.702 587.365 259.246Z" fill="rgb(237, 223, 203)"/><path data-mark="solid/body/hill/7-4/run" d="M480.005 287.891C468.936 286.424 457.868 284.957 446.8 283.489C450.562 284.685 454.324 285.881 458.086 287.077C469.557 288.58 481.028 290.082 492.498 291.585C488.334 290.354 484.169 289.123 480.005 287.891Z" fill="rgb(235, 221, 201)"/><path data-mark="solid/body/hill/10-2/run" d="M360.417 268.187C347.282 258.714 334.147 249.242 321.012 239.769C321.994 234.657 322.975 229.544 323.956 224.431C337.79 234.657 351.625 244.883 365.459 255.109C363.779 259.468 362.098 263.827 360.417 268.187Z" fill="rgb(221, 207, 187)"/><path data-mark="solid/body/hill/0-5/run" d="M715.022 107.214C703.815 124.272 692.609 141.33 681.402 158.387C688.359 160.541 695.315 162.694 702.272 164.847C714.029 147.136 725.786 129.424 737.544 111.713C730.036 110.213 722.529 108.714 715.022 107.214Z" fill="rgb(221, 207, 187)"/><path data-mark="solid/body/hill/5-5/run" d="M556.533 277.404C546.055 281.011 535.577 284.619 525.099 288.227C530.066 292.151 535.033 296.076 540 300C550.821 296.193 561.643 292.386 572.464 288.579C567.154 284.854 561.843 281.129 556.533 277.404Z" fill="rgb(239, 225, 205)"/><path data-mark="solid/body/flow/2-2-0/shaft" d="M557.06 233.279C554.087 232.836 551.115 232.393 548.142 231.951" fill="none" stroke="var(--deep, #0369a1)" stroke-width="1"/><path data-mark="solid/body/flow/2-2-0/head" d="M544.186 231.361C545.446 231.953 546.705 232.545 547.965 233.137C548.083 232.346 548.201 231.555 548.319 230.764C546.941 230.963 545.563 231.162 544.186 231.361Z" fill="var(--deep, #0369a1)"/><path data-mark="solid/body/hill/9-3/run" d="M402.804 275.696C390.356 268.833 377.907 261.971 365.459 255.109C367.679 253.072 369.898 251.034 372.118 248.997C385.123 256.289 398.128 263.58 411.133 270.872C408.357 272.48 405.58 274.088 402.804 275.696Z" fill="rgb(226, 212, 192)"/><path data-mark="solid/body/hill/6-5/run" d="M525.099 288.227C514.232 289.346 503.365 290.466 492.498 291.585C497.123 295.637 501.748 299.69 506.373 303.742C517.582 302.495 528.791 301.247 540 300C535.033 296.076 530.066 292.151 525.099 288.227Z" fill="rgb(239, 225, 205)"/><path data-mark="solid/body/flow/0-3-0/shaft" d="M717.04 234.866C711.659 236.822 706.279 238.779 700.898 240.735" fill="none" stroke="var(--deep, #0369a1)" stroke-width="1"/><path data-mark="solid/body/flow/0-3-0/head" d="M697.139 242.102C698.529 242.022 699.919 241.943 701.308 241.863C701.035 241.111 700.762 240.359 700.488 239.607C699.372 240.439 698.256 241.27 697.139 242.102Z" fill="var(--deep, #0369a1)"/><path data-mark="solid/body/hill/2-6/run" d="M668.72 208.273C657.905 219.839 647.089 231.406 636.274 242.973C642.593 249.091 648.913 255.21 655.232 261.329C666.441 249.378 677.65 237.427 688.86 225.476C682.147 219.741 675.433 214.007 668.72 208.273Z" fill="rgb(229, 215, 195)"/><path data-mark="solid/body/hill/3-6/run" d="M636.274 242.973C625.639 251.853 615.004 260.733 604.37 269.612C610.339 276.058 616.308 282.504 622.277 288.949C633.262 279.742 644.247 270.535 655.232 261.329C648.913 255.21 642.593 249.091 636.274 242.973Z" fill="rgb(233, 219, 199)"/><path data-mark="solid/body/flow/5-1-0/shaft" d="M327 244.673C333.364 241.674 339.728 238.675 346.093 235.676" fill="none" stroke="var(--deep, #0369a1)" stroke-width="1"/><path data-mark="solid/body/flow/5-1-0/head" d="M349.711 233.971C348.334 234.178 346.958 234.384 345.581 234.591C345.922 235.314 346.263 236.038 346.604 236.762C347.64 235.832 348.675 234.901 349.711 233.971Z" fill="var(--deep, #0369a1)"/><path data-mark="solid/body/hill/1-6/run" d="M702.272 164.847C691.088 179.322 679.904 193.798 668.72 208.273C675.433 214.007 682.147 219.741 688.86 225.476C700.495 210.544 712.13 195.612 723.765 180.681C716.601 175.403 709.436 170.125 702.272 164.847Z" fill="rgb(225, 211, 191)"/><path data-mark="solid/body/hill/4-6/run" d="M604.37 269.612C593.735 275.935 583.099 282.257 572.464 288.579C578.114 295.304 583.764 302.029 589.414 308.754C600.368 302.152 611.323 295.551 622.277 288.949C616.308 282.504 610.339 276.058 604.37 269.612Z" fill="rgb(237, 223, 203)"/><path data-mark="solid/body/hill/8-4/run" d="M446.8 283.489C434.911 279.284 423.022 275.078 411.133 270.872C414.452 271.907 417.771 272.941 421.09 273.976C433.422 278.343 445.754 282.71 458.086 287.077C454.324 285.881 450.562 284.685 446.8 283.489Z" fill="rgb(231, 217, 197)"/><path data-mark="solid/body/pane/2-1/run" d="M496.913 213.833C464.092 219.791 431.27 225.748 398.448 231.705C409.625 246.64 420.802 261.576 431.979 276.511C467.986 269.053 503.993 261.595 540 254.137C525.638 240.702 511.275 227.268 496.913 213.833Z" fill="var(--frost, #e0f2fe)" stroke="var(--sky, #38bdf8)" stroke-width="0.8"/><path data-mark="solid/body/flow/3-2-0/shaft" d="M490.93 246.361C491.821 245.436 492.712 244.51 493.603 243.585" fill="none" stroke="var(--deep, #0369a1)" stroke-width="1"/><path data-mark="solid/body/flow/3-2-0/head" d="M496.378 240.705C495.165 241.387 493.952 242.07 492.739 242.753C493.315 243.308 493.891 243.863 494.467 244.418C495.104 243.18 495.741 241.942 496.378 240.705Z" fill="var(--deep, #0369a1)"/><path data-mark="solid/body/hill/0-6/run" d="M737.544 111.713C725.786 129.424 714.029 147.136 702.272 164.847C709.436 170.125 716.601 175.403 723.765 180.681C736.048 162.418 748.33 144.156 760.613 125.893C752.923 121.167 745.233 116.44 737.544 111.713Z" fill="rgb(221, 207, 187)"/><path data-mark="solid/body/pane/0-2/run" d="M724.252 215.973C695.127 222.006 666.003 228.038 636.878 234.071C657.92 249.211 678.962 264.352 700.004 279.492C731.365 271.929 762.727 264.365 794.089 256.802C770.81 243.192 747.531 229.583 724.252 215.973Z" fill="var(--frost, #e0f2fe)" stroke="var(--sky, #38bdf8)" stroke-width="0.8"/><path data-mark="solid/body/hill/5-6/run" d="M572.464 288.579C561.643 292.386 550.821 296.193 540 300C545.35 306.962 550.701 313.925 556.051 320.887C567.172 316.843 578.293 312.798 589.414 308.754C583.764 302.029 578.114 295.304 572.464 288.579Z" fill="rgb(239, 225, 205)"/><path data-mark="solid/body/hill/7-5/run" d="M492.498 291.585C481.028 290.082 469.557 288.58 458.086 287.077C462.355 291.178 466.624 295.278 470.893 299.379C482.72 300.833 494.547 302.288 506.373 303.742C501.748 299.69 497.123 295.637 492.498 291.585Z" fill="rgb(237, 223, 203)"/><path data-mark="solid/body/hill/11-2/run" d="M321.012 239.769C306.203 226.603 291.394 213.436 276.585 200.269C276.699 194.065 276.813 187.862 276.927 181.658C292.603 195.916 308.28 210.174 323.956 224.431C322.975 229.544 321.994 234.657 321.012 239.769Z" fill="rgb(219, 205, 185)"/><path data-mark="solid/body/hill/2-7/run" d="M688.86 225.476C677.65 237.427 666.441 249.378 655.232 261.329C661.732 270.665 668.232 280.002 674.732 289.339C686.293 277.061 697.855 264.782 709.416 252.504C702.564 243.494 695.712 234.485 688.86 225.476Z" fill="rgb(228, 214, 194)"/><path data-mark="solid/body/hill/3-7/run" d="M655.232 261.329C644.247 270.535 633.262 279.742 622.277 288.949C628.471 298.588 634.665 308.228 640.858 317.867C652.149 308.358 663.441 298.848 674.732 289.339C668.232 280.002 661.732 270.665 655.232 261.329Z" fill="rgb(231, 217, 197)"/><path data-mark="solid/body/flow/1-3-0/shaft" d="M656.324 248.063C652.466 249.885 648.608 251.708 644.75 253.53" fill="none" stroke="var(--deep, #0369a1)" stroke-width="1"/><path data-mark="solid/body/flow/1-3-0/head" d="M641.134 255.239C642.51 255.031 643.886 254.823 645.263 254.615C644.921 253.892 644.579 253.169 644.238 252.445C643.203 253.377 642.168 254.308 641.134 255.239Z" fill="var(--deep, #0369a1)"/><path data-mark="solid/body/hill/10-3/run" d="M365.459 255.109C351.625 244.883 337.79 234.657 323.956 224.431C325.506 221.725 327.056 219.019 328.606 216.313C343.11 227.208 357.614 238.102 372.118 248.997C369.898 251.034 367.679 253.072 365.459 255.109Z" fill="rgb(223, 209, 189)"/><path data-mark="solid/body/hill/6-6/run" d="M540 300C528.791 301.247 517.582 302.495 506.373 303.742C511.432 310.9 516.491 318.059 521.55 325.217C533.05 323.774 544.551 322.33 556.051 320.887C550.701 313.925 545.35 306.962 540 300Z" fill="rgb(239, 225, 205)"/><path data-mark="solid/body/hill/1-7/run" d="M723.765 180.681C712.13 195.612 700.495 210.544 688.86 225.476C695.712 234.485 702.564 243.494 709.416 252.504C721.462 237.206 733.508 221.909 745.554 206.611C738.291 197.968 731.028 189.324 723.765 180.681Z" fill="rgb(224, 210, 190)"/><path data-mark="solid/body/hill/4-7/run" d="M622.277 288.949C611.323 295.551 600.368 302.152 589.414 308.754C595.337 318.68 601.259 328.607 607.182 338.533C618.407 331.645 629.633 324.756 640.858 317.867C634.665 308.228 628.471 298.588 622.277 288.949Z" fill="rgb(235, 221, 201)"/><path data-mark="solid/body/hill/9-4/run" d="M411.133 270.872C398.128 263.58 385.123 256.289 372.118 248.997C374.925 249.71 377.732 250.424 380.54 251.138C394.056 258.751 407.573 266.363 421.09 273.976C417.771 272.941 414.452 271.907 411.133 270.872Z" fill="rgb(228, 214, 194)"/><path data-mark="solid/body/flow/4-2-0/shaft" d="M419.927 260.406C425.183 258.422 430.438 256.438 435.694 254.454" fill="none" stroke="var(--deep, #0369a1)" stroke-width="1"/><path data-mark="solid/body/flow/4-2-0/head" d="M439.436 253.041C438.048 253.137 436.659 253.234 435.27 253.331C435.553 254.079 435.835 254.828 436.118 255.576C437.224 254.731 438.33 253.886 439.436 253.041Z" fill="var(--deep, #0369a1)"/><path data-mark="solid/body/hill/0-7/run" d="M760.613 125.893C748.33 144.156 736.048 162.418 723.765 180.681C731.028 189.324 738.291 197.968 745.554 206.611C758.323 187.927 771.092 169.242 783.86 150.557C776.111 142.336 768.362 134.115 760.613 125.893Z" fill="rgb(221, 207, 187)"/><path data-mark="solid/body/hill/5-7/run" d="M589.414 308.754C578.293 312.798 567.172 316.843 556.051 320.887C561.728 331.092 567.404 341.296 573.081 351.501C584.448 347.178 595.815 342.856 607.182 338.533C601.259 328.607 595.337 318.68 589.414 308.754Z" fill="rgb(237, 223, 203)"/><path data-mark="solid/body/hill/8-5/run" d="M458.086 287.077C445.754 282.71 433.422 278.343 421.09 273.976C424.97 278.029 428.85 282.082 432.729 286.135C445.451 290.549 458.172 294.964 470.893 299.379C466.624 295.278 462.355 291.178 458.086 287.077Z" fill="rgb(233, 219, 199)"/><path data-mark="solid/body/hill/2-8/run" d="M709.416 252.504C697.855 264.782 686.293 277.061 674.732 289.339C681.308 302.014 687.884 314.688 694.46 327.363C706.322 314.825 718.183 302.288 730.044 289.75C723.168 277.335 716.292 264.919 709.416 252.504Z" fill="rgb(226, 212, 192)"/><path data-mark="solid/body/hill/3-8/run" d="M674.732 289.339C663.441 298.848 652.149 308.358 640.858 317.867C647.182 330.813 653.506 343.758 659.829 356.703C671.373 346.923 682.917 337.143 694.46 327.363C687.884 314.688 681.308 302.014 674.732 289.339Z" fill="rgb(229, 215, 195)"/><path data-mark="solid/body/hill/7-6/run" d="M506.373 303.742C494.547 302.288 482.72 300.833 470.893 299.379C475.655 306.687 480.416 313.996 485.177 321.305C497.301 322.609 509.425 323.913 521.55 325.217C516.491 318.059 511.432 310.9 506.373 303.742Z" fill="rgb(237, 223, 203)"/><path data-mark="solid/body/hill/1-8/run" d="M745.554 206.611C733.508 221.909 721.462 237.206 709.416 252.504C716.292 264.919 723.168 277.335 730.044 289.75C742.449 274.194 754.854 258.639 767.258 243.083C760.024 230.926 752.789 218.769 745.554 206.611Z" fill="rgb(223, 209, 189)"/><path data-mark="solid/body/hill/4-8/run" d="M640.858 317.867C629.633 324.756 618.407 331.645 607.182 338.533C613.291 351.77 619.4 365.007 625.509 378.243C636.949 371.063 648.389 363.883 659.829 356.703C653.506 343.758 647.182 330.813 640.858 317.867Z" fill="rgb(231, 217, 197)"/><path data-mark="solid/body/pane/3-1/run" d="M398.448 231.705C362.081 238.306 325.713 244.907 289.346 251.508C296.488 268.21 303.631 284.913 310.774 301.615C351.175 293.247 391.577 284.879 431.979 276.511C420.802 261.576 409.625 246.64 398.448 231.705Z" fill="var(--frost, #e0f2fe)" stroke="var(--sky, #38bdf8)" stroke-width="0.8"/><path data-mark="solid/body/hill/6-7/run" d="M556.051 320.887C544.551 322.33 533.05 323.774 521.55 325.217C526.995 335.694 532.44 346.171 537.885 356.649C549.617 354.933 561.349 353.217 573.081 351.501C567.404 341.296 561.728 331.092 556.051 320.887Z" fill="rgb(237, 223, 203)"/><path data-mark="solid/body/flow/2-3-0/shaft" d="M591.114 262.237C590.439 263.24 589.764 264.243 589.09 265.246" fill="none" stroke="var(--deep, #0369a1)" stroke-width="1"/><path data-mark="solid/body/flow/2-3-0/head" d="M586.857 268.565C587.933 267.682 589.009 266.799 590.085 265.916C589.422 265.469 588.758 265.023 588.094 264.576C587.682 265.906 587.27 267.236 586.857 268.565Z" fill="var(--deep, #0369a1)"/><path data-mark="solid/body/pane/1-2/run" d="M636.878 234.071C604.585 240.759 572.293 247.448 540 254.137C558.116 271.082 576.232 288.028 594.348 304.973C629.566 296.48 664.785 287.986 700.004 279.492C678.962 264.352 657.92 249.211 636.878 234.071Z" fill="var(--frost, #e0f2fe)" stroke="var(--sky, #38bdf8)" stroke-width="0.8"/><path data-mark="solid/body/hill/0-8/run" d="M783.86 150.557C771.092 169.242 758.323 187.927 745.554 206.611C752.789 218.769 760.024 230.926 767.258 243.083C780.459 224.126 793.659 205.17 806.859 186.213C799.193 174.328 791.527 162.442 783.86 150.557Z" fill="rgb(220, 206, 186)"/><path data-mark="solid/body/hill/5-8/run" d="M607.182 338.533C595.815 342.856 584.448 347.178 573.081 351.501C579.005 365.057 584.929 378.612 590.854 392.168C602.406 387.526 613.957 382.885 625.509 378.243C619.4 365.007 613.291 351.77 607.182 338.533Z" fill="rgb(233, 219, 199)"/><path data-mark="solid/body/hill/2-9/run" d="M730.044 289.75C718.183 302.288 706.322 314.825 694.46 327.363C700.994 343.382 707.528 359.401 714.062 375.42C726.161 362.702 738.26 349.984 750.359 337.265C743.588 321.427 736.816 305.589 730.044 289.75Z" fill="rgb(223, 209, 189)"/><path data-mark="solid/body/hill/3-9/run" d="M694.46 327.363C682.917 337.143 671.373 346.923 659.829 356.703C666.173 372.954 672.516 389.204 678.859 405.455C690.593 395.443 702.328 385.432 714.062 375.42C707.528 359.401 700.994 343.382 694.46 327.363Z" fill="rgb(226, 212, 192)"/><path data-mark="solid/body/flow/0-4-0/shaft" d="M763.893 264.084C760.933 267.288 757.973 270.492 755.013 273.697" fill="none" stroke="var(--deep, #0369a1)" stroke-width="1"/><path data-mark="solid/body/flow/0-4-0/head" d="M752.298 276.635C753.497 275.927 754.696 275.219 755.894 274.511C755.307 273.968 754.719 273.425 754.131 272.882C753.52 274.133 752.909 275.384 752.298 276.635Z" fill="var(--deep, #0369a1)"/><path data-mark="solid/body/hill/11-3/run" d="M323.956 224.431C308.28 210.174 292.603 195.916 276.927 181.658C277.637 177.956 278.348 174.254 279.058 170.551C295.574 185.805 312.09 201.059 328.606 216.313C327.056 219.019 325.506 221.725 323.956 224.431Z" fill="rgb(220, 206, 186)"/><path data-mark="solid/body/flow/5-2-0/shaft" d="M343.492 275.526C351.882 273.05 360.271 270.574 368.661 268.098" fill="none" stroke="var(--deep, #0369a1)" stroke-width="1"/><path data-mark="solid/body/flow/5-2-0/head" d="M372.497 266.965C371.105 266.959 369.713 266.953 368.321 266.947C368.548 267.714 368.774 268.481 369.001 269.248C370.166 268.487 371.332 267.726 372.497 266.965Z" fill="var(--deep, #0369a1)"/><path data-mark="solid/body/hill/1-9/run" d="M767.258 243.083C754.854 258.639 742.449 274.194 730.044 289.75C736.816 305.589 743.588 321.427 750.359 337.265C763.058 321.572 775.756 305.878 788.455 290.184C781.389 274.484 774.324 258.783 767.258 243.083Z" fill="rgb(221, 207, 187)"/><path data-mark="solid/body/hill/4-9/run" d="M659.829 356.703C648.389 363.883 636.949 371.063 625.509 378.243C631.702 394.784 637.894 411.324 644.087 427.865C655.678 420.395 667.268 412.925 678.859 405.455C672.516 389.204 666.173 372.954 659.829 356.703Z" fill="rgb(228, 214, 194)"/><path data-mark="solid/body/hill/10-4/run" d="M372.118 248.997C357.614 238.102 343.11 227.208 328.606 216.313C330.795 216.492 332.983 216.672 335.172 216.852C350.294 228.28 365.417 239.709 380.54 251.138C377.732 250.424 374.925 249.71 372.118 248.997Z" fill="rgb(224, 210, 190)"/><path data-mark="solid/body/hill/9-5/run" d="M421.09 273.976C407.573 266.363 394.056 258.751 380.54 251.138C383.971 255.019 387.403 258.899 390.834 262.78C404.799 270.565 418.764 278.35 432.729 286.135C428.85 282.082 424.97 278.029 421.09 273.976Z" fill="rgb(229, 215, 195)"/><path data-mark="solid/body/hill/8-6/run" d="M470.893 299.379C458.172 294.964 445.451 290.549 432.729 286.135C437.17 293.537 441.611 300.939 446.051 308.341C459.093 312.662 472.135 316.983 485.177 321.305C480.416 313.996 475.655 306.687 470.893 299.379Z" fill="rgb(233, 219, 199)"/><path data-mark="solid/body/hill/7-7/run" d="M521.55 325.217C509.425 323.913 497.301 322.609 485.177 321.305C490.394 332.049 495.611 342.794 500.828 353.538C513.18 354.575 525.532 355.612 537.885 356.649C532.44 346.171 526.995 335.694 521.55 325.217Z" fill="rgb(235, 221, 201)"/><path data-mark="solid/body/hill/2-10/run" d="M750.359 337.265C738.26 349.984 726.161 362.702 714.062 375.42C720.426 394.663 726.79 413.906 733.155 433.149C745.421 420.336 757.687 407.523 769.953 394.71C763.422 375.562 756.89 356.414 750.359 337.265Z" fill="rgb(221, 207, 187)"/><path data-mark="solid/body/hill/3-10/run" d="M714.062 375.42C702.328 385.432 690.593 395.443 678.859 405.455C685.101 424.883 691.343 444.311 697.586 463.739C709.442 453.543 721.298 443.346 733.155 433.149C726.79 413.906 720.426 394.663 714.062 375.42Z" fill="rgb(223, 209, 189)"/><path data-mark="solid/body/hill/6-8/run" d="M573.081 351.501C561.349 353.217 549.617 354.933 537.885 356.649C543.646 370.558 549.408 384.467 555.17 398.377C567.064 396.307 578.959 394.238 590.854 392.168C584.929 378.612 579.005 365.057 573.081 351.501Z" fill="rgb(233, 219, 199)"/><path data-mark="solid/body/hill/0-9/run" d="M806.859 186.213C793.659 205.17 780.459 224.126 767.258 243.083C774.324 258.783 781.389 274.484 788.455 290.184C802.017 271.124 815.58 252.064 829.142 233.004C821.715 217.407 814.287 201.81 806.859 186.213Z" fill="rgb(219, 205, 185)"/><path data-mark="solid/body/hill/5-9/run" d="M625.509 378.243C613.957 382.885 602.406 387.526 590.854 392.168C596.93 409.066 603.006 425.963 609.082 442.861C620.75 437.862 632.419 432.863 644.087 427.865C637.894 411.324 631.702 394.784 625.509 378.243Z" fill="rgb(229, 215, 195)"/><path data-mark="solid/body/hill/1-10/run" d="M788.455 290.184C775.756 305.878 763.058 321.572 750.359 337.265C756.89 356.414 763.422 375.562 769.953 394.71C782.87 379.007 795.788 363.304 808.705 347.602C801.955 328.463 795.205 309.323 788.455 290.184Z" fill="rgb(219, 205, 185)"/><path data-mark="solid/body/hill/4-10/run" d="M678.859 405.455C667.268 412.925 655.678 420.395 644.087 427.865C650.248 447.574 656.408 467.284 662.569 486.994C674.241 479.242 685.913 471.491 697.586 463.739C691.343 444.311 685.101 424.883 678.859 405.455Z" fill="rgb(224, 210, 190)"/><path data-mark="solid/body/flow/3-3-0/shaft" d="M520.891 277.5C524.366 278.088 527.84 278.676 531.315 279.265" fill="none" stroke="var(--deep, #0369a1)" stroke-width="1"/><path data-mark="solid/body/flow/3-3-0/head" d="M535.259 279.932C534.011 279.316 532.764 278.699 531.516 278.082C531.382 278.87 531.249 279.659 531.115 280.448C532.496 280.276 533.878 280.104 535.259 279.932Z" fill="var(--deep, #0369a1)"/><path data-mark="solid/body/hill/2-11/run" d="M769.953 394.71C757.687 407.523 745.421 420.336 733.155 433.149C739.221 455.364 745.286 477.579 751.352 499.793C763.709 486.975 776.065 474.157 788.421 461.339C782.265 439.129 776.109 416.919 769.953 394.71Z" fill="rgb(219, 205, 185)"/><path data-mark="solid/body/hill/3-11/run" d="M733.155 433.149C721.298 443.346 709.442 453.543 697.586 463.739C703.603 486.086 709.62 508.434 715.637 530.781C727.542 520.452 739.447 510.123 751.352 499.793C745.286 477.579 739.221 455.364 733.155 433.149Z" fill="rgb(220, 206, 186)"/><path data-mark="solid/body/hill/1-11/run" d="M808.705 347.602C795.788 363.304 782.87 379.007 769.953 394.71C776.109 416.919 782.265 439.129 788.421 461.339C801.474 445.759 814.527 430.178 827.579 414.598C821.288 392.266 814.997 369.934 808.705 347.602Z" fill="rgb(217, 203, 183)"/><path data-mark="solid/body/hill/4-11/run" d="M697.586 463.739C685.913 471.491 674.241 479.242 662.569 486.994C668.577 509.606 674.584 532.219 680.592 554.831C692.273 546.815 703.955 538.798 715.637 530.781C709.62 508.434 703.603 486.086 697.586 463.739Z" fill="rgb(221, 207, 187)"/><path data-mark="solid/body/hill/0-10/run" d="M829.142 233.004C815.58 252.064 802.017 271.124 788.455 290.184C795.205 309.323 801.955 328.463 808.705 347.602C822.547 328.616 836.389 309.63 850.231 290.644C843.202 271.43 836.172 252.217 829.142 233.004Z" fill="rgb(217, 203, 183)"/><path data-mark="solid/body/hill/5-10/run" d="M644.087 427.865C632.419 432.863 620.75 437.862 609.082 442.861C615.198 462.958 621.315 483.056 627.431 503.153C639.144 497.767 650.856 492.38 662.569 486.994C656.408 467.284 650.248 447.574 644.087 427.865Z" fill="rgb(225, 211, 191)"/><path data-mark="solid/body/hill/6-9/run" d="M590.854 392.168C578.959 394.238 567.064 396.307 555.17 398.377C561.158 415.708 567.147 433.039 573.135 450.371C585.117 447.867 597.1 445.364 609.082 442.861C603.006 425.963 596.93 409.066 590.854 392.168Z" fill="rgb(229, 215, 195)"/><path data-mark="solid/body/flow/1-4-0/shaft" d="M700.004 279.492C698.77 282.724 697.537 285.955 696.303 289.186" fill="none" stroke="var(--deep, #0369a1)" stroke-width="1"/><path data-mark="solid/body/flow/1-4-0/head" d="M694.876 292.923C695.726 291.82 696.575 290.717 697.424 289.614C696.677 289.329 695.929 289.043 695.182 288.758C695.08 290.146 694.978 291.535 694.876 292.923Z" fill="var(--deep, #0369a1)"/><path data-mark="solid/body/hill/7-8/run" d="M537.885 356.649C525.532 355.612 513.18 354.575 500.828 353.538C506.441 367.841 512.053 382.145 517.666 396.448C530.167 397.091 542.669 397.734 555.17 398.377C549.408 384.467 543.646 370.558 537.885 356.649Z" fill="rgb(231, 217, 197)"/><path data-mark="solid/body/hill/0-11/run" d="M850.231 290.644C836.389 309.63 822.547 328.616 808.705 347.602C814.997 369.934 821.288 392.266 827.579 414.598C841.607 395.865 855.635 377.133 869.663 358.4C863.186 335.815 856.709 313.229 850.231 290.644Z" fill="rgb(216, 202, 182)"/><path data-mark="solid/body/hill/5-11/run" d="M662.569 486.994C650.856 492.38 639.144 497.767 627.431 503.153C633.469 526.173 639.506 549.193 645.544 572.213C657.226 566.419 668.909 560.625 680.592 554.831C674.584 532.219 668.577 509.606 662.569 486.994Z" fill="rgb(221, 207, 187)"/><path data-mark="solid/body/hill/8-7/run" d="M485.177 321.305C472.135 316.983 459.093 312.662 446.051 308.341C451.03 319.343 456.008 330.346 460.986 341.348C474.267 345.411 487.547 349.475 500.828 353.538C495.611 342.794 490.394 332.049 485.177 321.305Z" fill="rgb(231, 217, 197)"/><path data-mark="solid/body/pane/2-2/run" d="M540 254.137C503.993 261.595 467.986 269.053 431.979 276.511C446.268 295.605 460.557 314.699 474.847 333.794C514.68 324.187 554.514 314.58 594.348 304.973C576.232 288.028 558.116 271.082 540 254.137Z" fill="var(--frost, #e0f2fe)" stroke="var(--sky, #38bdf8)" stroke-width="0.8"/><path data-mark="solid/body/hill/9-6/run" d="M432.729 286.135C418.764 278.35 404.799 270.565 390.834 262.78C394.908 270.197 398.982 277.615 403.055 285.032C417.387 292.802 431.719 300.571 446.051 308.341C441.611 300.939 437.17 293.537 432.729 286.135Z" fill="rgb(229, 215, 195)"/><path data-mark="solid/body/hill/6-10/run" d="M609.082 442.861C597.1 445.364 585.117 447.867 573.135 450.371C579.243 470.975 585.351 491.579 591.458 512.183C603.449 509.173 615.44 506.163 627.431 503.153C621.315 483.056 615.198 462.958 609.082 442.861Z" fill="rgb(225, 211, 191)"/><path data-mark="solid/body/hill/10-5/run" d="M380.54 251.138C365.417 239.709 350.294 228.28 335.172 216.852C338.058 220.387 340.945 223.923 343.831 227.459C359.499 239.233 375.167 251.006 390.834 262.78C387.403 258.899 383.971 255.019 380.54 251.138Z" fill="rgb(225, 211, 191)"/><path data-mark="solid/body/flow/4-3-0/shaft" d="M445.054 293.983C452.537 293.558 460.019 293.133 467.501 292.707" fill="none" stroke="var(--deep, #0369a1)" stroke-width="1"/><path data-mark="solid/body/flow/4-3-0/head" d="M471.495 292.48C470.141 292.157 468.787 291.833 467.433 291.509C467.479 292.308 467.524 293.107 467.569 293.905C468.878 293.43 470.186 292.955 471.495 292.48Z" fill="var(--deep, #0369a1)"/><path data-mark="solid/body/pane/0-3/run" d="M794.089 256.802C762.727 264.365 731.365 271.929 700.004 279.492C726.954 298.884 753.904 318.276 780.854 337.667C814.675 327.906 848.497 318.145 882.319 308.384C852.909 291.19 823.499 273.996 794.089 256.802Z" fill="var(--frost, #e0f2fe)" stroke="var(--sky, #38bdf8)" stroke-width="0.8"/><path data-mark="solid/body/hill/11-4/run" d="M328.606 216.313C312.09 201.059 295.574 185.805 279.058 170.551C280.462 169.896 281.866 169.242 283.27 168.587C300.571 184.675 317.871 200.763 335.172 216.852C332.983 216.672 330.795 216.492 328.606 216.313Z" fill="rgb(221, 207, 187)"/><path data-mark="solid/body/hill/6-11/run" d="M627.431 503.153C615.44 506.163 603.449 509.173 591.458 512.183C597.566 535.768 603.673 559.353 609.781 582.939C621.702 579.364 633.623 575.788 645.544 572.213C639.506 549.193 633.469 526.173 627.431 503.153Z" fill="rgb(221, 207, 187)"/><path data-mark="solid/body/hill/7-9/run" d="M555.17 398.377C542.669 397.734 530.167 397.091 517.666 396.448C523.591 414.302 529.516 432.155 535.441 450.009C548.006 450.129 560.571 450.25 573.135 450.371C567.147 433.039 561.158 415.708 555.17 398.377Z" fill="rgb(228, 214, 194)"/><path data-mark="solid/body/hill/8-8/run" d="M500.828 353.538C487.547 349.475 474.267 345.411 460.986 341.348C466.454 356.09 471.921 370.832 477.388 385.575C490.814 389.199 504.24 392.823 517.666 396.448C512.053 382.145 506.441 367.841 500.828 353.538Z" fill="rgb(229, 215, 195)"/><path data-mark="solid/body/flow/2-4-0/shaft" d="M630.981 296.139C632.434 299.337 633.887 302.535 635.34 305.733" fill="none" stroke="var(--deep, #0369a1)" stroke-width="1"/><path data-mark="solid/body/flow/2-4-0/head" d="M636.994 309.374C636.807 307.995 636.62 306.616 636.432 305.236C635.704 305.567 634.976 305.898 634.247 306.229C635.163 307.278 636.079 308.326 636.994 309.374Z" fill="var(--deep, #0369a1)"/><path data-mark="solid/body/hill/7-10/run" d="M573.135 450.371C560.571 450.25 548.006 450.129 535.441 450.009C541.574 471.256 547.707 492.503 553.84 513.75C566.38 513.228 578.919 512.705 591.458 512.183C585.351 491.579 579.243 470.975 573.135 450.371Z" fill="rgb(224, 210, 190)"/><path data-mark="solid/body/hill/9-7/run" d="M446.051 308.341C431.719 300.571 417.387 292.802 403.055 285.032C407.765 296.273 412.475 307.513 417.185 318.754C431.785 326.285 446.386 333.817 460.986 341.348C456.008 330.346 451.03 319.343 446.051 308.341Z" fill="rgb(228, 214, 194)"/><path data-mark="solid/body/flow/0-5-0/shaft" d="M818.786 298.316C818.357 303.036 817.928 307.757 817.498 312.477" fill="none" stroke="var(--deep, #0369a1)" stroke-width="1"/><path data-mark="solid/body/flow/0-5-0/head" d="M817.136 316.461C817.655 315.169 818.174 313.877 818.693 312.586C817.896 312.513 817.1 312.441 816.303 312.368C816.581 313.732 816.858 315.096 817.136 316.461Z" fill="var(--deep, #0369a1)"/><path data-mark="solid/body/hill/7-11/run" d="M591.458 512.183C578.919 512.705 566.38 513.228 553.84 513.75C560.061 538.081 566.282 562.412 572.503 586.743C584.929 585.475 597.355 584.207 609.781 582.939C603.673 559.353 597.566 535.768 591.458 512.183Z" fill="rgb(221, 207, 187)"/><path data-mark="solid/body/flow/5-3-0/shaft" d="M362.903 311.839C373.169 310.616 383.436 309.394 393.703 308.171" fill="none" stroke="var(--deep, #0369a1)" stroke-width="1"/><path data-mark="solid/body/flow/5-3-0/head" d="M397.675 307.698C396.303 307.458 394.932 307.219 393.561 306.979C393.655 307.774 393.75 308.568 393.845 309.363C395.121 308.808 396.398 308.253 397.675 307.698Z" fill="var(--deep, #0369a1)"/><path data-mark="solid/body/hill/10-6/run" d="M390.834 262.78C375.167 251.006 359.499 239.233 343.831 227.459C347.457 234.777 351.084 242.095 354.71 249.413C370.825 261.286 386.94 273.159 403.055 285.032C398.982 277.615 394.908 270.197 390.834 262.78Z" fill="rgb(225, 211, 191)"/><path data-mark="solid/body/hill/8-9/run" d="M517.666 396.448C504.24 392.823 490.814 389.199 477.388 385.575C483.268 404.053 489.148 422.532 495.028 441.01C508.499 444.01 521.97 447.009 535.441 450.009C529.516 432.155 523.591 414.302 517.666 396.448Z" fill="rgb(226, 212, 192)"/><path data-mark="solid/body/hill/11-5/run" d="M335.172 216.852C317.871 200.763 300.571 184.675 283.27 168.587C285.458 171.526 287.646 174.465 289.833 177.405C307.833 194.09 325.832 210.774 343.831 227.459C340.945 223.923 338.058 220.387 335.172 216.852Z" fill="rgb(221, 207, 187)"/><path data-mark="solid/body/pane/3-2/run" d="M431.979 276.511C391.577 284.879 351.175 293.247 310.774 301.615C320.045 323.295 329.316 344.975 338.588 366.655C384.007 355.702 429.427 344.748 474.847 333.794C460.557 314.699 446.268 295.605 431.979 276.511Z" fill="var(--frost, #e0f2fe)" stroke="var(--sky, #38bdf8)" stroke-width="0.8"/><path data-mark="solid/body/hill/8-10/run" d="M535.441 450.009C521.97 447.009 508.499 444.01 495.028 441.01C501.22 463.06 507.412 485.111 513.604 507.161C527.016 509.357 540.428 511.554 553.84 513.75C547.707 492.503 541.574 471.256 535.441 450.009Z" fill="rgb(223, 209, 189)"/><path data-mark="solid/body/flow/3-4-0/shaft" d="M556.181 314.178C561.626 317.025 567.071 319.872 572.516 322.719" fill="none" stroke="var(--deep, #0369a1)" stroke-width="1"/><path data-mark="solid/body/flow/3-4-0/head" d="M576.06 324.572C575.064 323.6 574.068 322.628 573.072 321.656C572.701 322.364 572.33 323.073 571.96 323.782C573.327 324.046 574.694 324.309 576.06 324.572Z" fill="var(--deep, #0369a1)"/><path data-mark="solid/body/hill/9-8/run" d="M460.986 341.348C446.386 333.817 431.785 326.285 417.185 318.754C422.496 333.982 427.807 349.211 433.118 364.439C447.875 371.484 462.631 378.529 477.388 385.575C471.921 370.832 466.454 356.09 460.986 341.348Z" fill="rgb(226, 212, 192)"/><path data-mark="solid/body/pane/1-3/run" d="M700.004 279.492C664.785 287.986 629.566 296.48 594.348 304.973C617.91 327.014 641.472 349.054 665.035 371.094C703.641 359.952 742.247 348.81 780.854 337.667C753.904 318.276 726.954 298.884 700.004 279.492Z" fill="var(--frost, #e0f2fe)" stroke="var(--sky, #38bdf8)" stroke-width="0.8"/><path data-mark="solid/body/hill/8-11/run" d="M553.84 513.75C540.428 511.554 527.016 509.357 513.604 507.161C519.986 532.45 526.368 557.74 532.749 583.03C546.001 584.268 559.252 585.505 572.503 586.743C566.282 562.412 560.061 538.081 553.84 513.75Z" fill="rgb(220, 206, 186)"/><path data-mark="solid/body/flow/1-5-0/shaft" d="M751.494 316.542C752.903 321.743 754.312 326.944 755.721 332.145" fill="none" stroke="var(--deep, #0369a1)" stroke-width="1"/><path data-mark="solid/body/flow/1-5-0/head" d="M756.767 336.006C756.804 334.614 756.841 333.223 756.879 331.831C756.107 332.04 755.335 332.25 754.562 332.459C755.297 333.641 756.032 334.824 756.767 336.006Z" fill="var(--deep, #0369a1)"/><path data-mark="solid/body/hill/10-7/run" d="M403.055 285.032C386.94 273.159 370.825 261.286 354.71 249.413C359.093 260.85 363.476 272.287 367.859 283.724C384.301 295.401 400.743 307.078 417.185 318.754C412.475 307.513 407.765 296.273 403.055 285.032Z" fill="rgb(224, 210, 190)"/><path data-mark="solid/body/hill/9-9/run" d="M477.388 385.575C462.631 378.529 447.875 371.484 433.118 364.439C438.965 383.662 444.811 402.885 450.657 422.109C465.448 428.409 480.238 434.71 495.028 441.01C489.148 422.532 483.268 404.053 477.388 385.575Z" fill="rgb(223, 209, 189)"/><path data-mark="solid/body/flow/4-4-0/shaft" d="M474.847 333.794C483.853 335.56 492.86 337.327 501.866 339.093" fill="none" stroke="var(--deep, #0369a1)" stroke-width="1"/><path data-mark="solid/body/flow/4-4-0/head" d="M505.792 339.863C504.56 339.214 503.329 338.564 502.097 337.915C501.943 338.7 501.789 339.485 501.635 340.27C503.021 340.135 504.406 339.999 505.792 339.863Z" fill="var(--deep, #0369a1)"/><path data-mark="solid/body/hill/11-6/run" d="M343.831 227.459C325.832 210.774 307.833 194.09 289.833 177.405C292.879 184.444 295.925 191.483 298.97 198.522C317.55 215.485 336.13 232.449 354.71 249.413C351.084 242.095 347.457 234.777 343.831 227.459Z" fill="rgb(221, 207, 187)"/><path data-mark="solid/body/hill/9-10/run" d="M495.028 441.01C480.238 434.71 465.448 428.409 450.657 422.109C456.941 445.154 463.225 468.199 469.509 491.245C484.207 496.55 498.906 501.855 513.604 507.161C507.412 485.111 501.22 463.06 495.028 441.01Z" fill="rgb(221, 207, 187)"/><path data-mark="solid/body/hill/10-8/run" d="M417.185 318.754C400.743 307.078 384.301 295.401 367.859 283.724C372.983 299.484 378.106 315.244 383.23 331.003C399.86 342.148 416.489 353.294 433.118 364.439C427.807 349.211 422.496 333.982 417.185 318.754Z" fill="rgb(223, 209, 189)"/><path data-mark="solid/body/hill/9-11/run" d="M513.604 507.161C498.906 501.855 484.207 496.55 469.509 491.245C476.106 517.752 482.703 544.26 489.3 570.767C503.783 574.854 518.266 578.942 532.749 583.03C526.368 557.74 519.986 532.45 513.604 507.161Z" fill="rgb(219, 205, 185)"/><path data-mark="solid/body/flow/2-5-0/shaft" d="M678.291 336.369C682.431 341.837 686.571 347.304 690.711 352.772" fill="none" stroke="var(--deep, #0369a1)" stroke-width="1"/><path data-mark="solid/body/flow/2-5-0/head" d="M693.126 355.961C692.64 354.656 692.154 353.352 691.668 352.047C691.03 352.53 690.393 353.013 689.755 353.496C690.879 354.318 692.002 355.139 693.126 355.961Z" fill="var(--deep, #0369a1)"/><path data-mark="solid/body/pane/2-3/run" d="M594.348 304.973C554.514 314.58 514.68 324.187 474.847 333.794C493.759 359.066 512.671 384.337 531.583 409.609C576.067 396.771 620.551 383.932 665.035 371.094C641.472 349.054 617.91 327.014 594.348 304.973Z" fill="var(--frost, #e0f2fe)" stroke="var(--sky, #38bdf8)" stroke-width="0.8"/><path data-mark="solid/body/hill/10-9/run" d="M433.118 364.439C416.489 353.294 399.86 342.148 383.23 331.003C389.042 351.111 394.854 371.22 400.666 391.328C417.33 401.588 433.993 411.848 450.657 422.109C444.811 402.885 438.965 383.662 433.118 364.439Z" fill="rgb(221, 207, 187)"/><path data-mark="solid/body/flow/5-4-0/shaft" d="M386.082 355.201C397.798 355.869 409.513 356.536 421.229 357.204" fill="none" stroke="var(--deep, #0369a1)" stroke-width="1"/><path data-mark="solid/body/flow/5-4-0/head" d="M425.222 357.431C423.914 356.956 422.605 356.481 421.297 356.006C421.252 356.804 421.206 357.603 421.161 358.402C422.514 358.078 423.868 357.755 425.222 357.431Z" fill="var(--deep, #0369a1)"/><path data-mark="solid/body/hill/11-7/run" d="M354.71 249.413C336.13 232.449 317.55 215.485 298.97 198.522C302.923 210.073 306.875 221.623 310.827 233.174C329.838 250.024 348.848 266.874 367.859 283.724C363.476 272.287 359.093 260.85 354.71 249.413Z" fill="rgb(221, 207, 187)"/><path data-mark="solid/body/hill/10-10/run" d="M450.657 422.109C433.993 411.848 417.33 401.588 400.666 391.328C407.074 415.605 413.482 439.882 419.89 464.159C436.43 473.188 452.969 482.216 469.509 491.245C463.225 468.199 456.941 445.154 450.657 422.109Z" fill="rgb(219, 205, 185)"/><path data-mark="solid/body/flow/3-5-0/shaft" d="M598.362 358.018C605.77 363.142 613.177 368.266 620.585 373.39" fill="none" stroke="var(--deep, #0369a1)" stroke-width="1"/><path data-mark="solid/body/flow/3-5-0/head" d="M623.875 375.665C623.006 374.578 622.137 373.49 621.268 372.403C620.812 373.061 620.357 373.719 619.902 374.377C621.226 374.806 622.55 375.236 623.875 375.665Z" fill="var(--deep, #0369a1)"/><path data-mark="solid/body/hill/10-11/run" d="M469.509 491.245C452.969 482.216 436.43 473.188 419.89 464.159C426.767 492.209 433.644 520.258 440.521 548.308C456.781 555.794 473.041 563.281 489.3 570.767C482.703 544.26 476.106 517.752 469.509 491.245Z" fill="rgb(217, 203, 183)"/><path data-mark="solid/body/hill/11-8/run" d="M367.859 283.724C348.848 266.874 329.838 250.024 310.827 233.174C315.698 249.499 320.569 265.824 325.44 282.148C344.704 298.433 363.967 314.718 383.23 331.003C378.106 315.244 372.983 299.484 367.859 283.724Z" fill="rgb(220, 206, 186)"/><path data-mark="solid/body/pane/3-3/run" d="M474.847 333.794C429.427 344.748 384.007 355.702 338.588 366.655C351.106 395.927 363.624 425.199 376.141 454.471C427.955 439.517 479.769 424.563 531.583 409.609C512.671 384.337 493.759 359.066 474.847 333.794Z" fill="var(--frost, #e0f2fe)" stroke="var(--sky, #38bdf8)" stroke-width="0.8"/><path data-mark="solid/body/hill/11-9/run" d="M383.23 331.003C363.967 314.718 344.704 298.433 325.44 282.148C331.198 303.305 336.955 324.463 342.712 345.62C362.03 360.856 381.348 376.092 400.666 391.328C394.854 371.22 389.042 351.111 383.23 331.003Z" fill="rgb(219, 205, 185)"/><path data-mark="solid/body/flow/4-5-0/shaft" d="M510.736 381.751C521.184 385.939 531.632 390.126 542.081 394.313" fill="none" stroke="var(--deep, #0369a1)" stroke-width="1"/><path data-mark="solid/body/flow/4-5-0/head" d="M545.793 395.801C544.705 394.934 543.616 394.066 542.527 393.199C542.229 393.942 541.932 394.684 541.634 395.427C543.021 395.552 544.407 395.676 545.793 395.801Z" fill="var(--deep, #0369a1)"/><path data-mark="solid/body/hill/11-10/run" d="M400.666 391.328C381.348 376.092 362.03 360.856 342.712 345.62C349.273 371.426 355.835 397.231 362.396 423.037C381.561 436.744 400.726 450.452 419.89 464.159C413.482 439.882 407.074 415.605 400.666 391.328Z" fill="rgb(217, 203, 183)"/><path data-mark="solid/body/hill/11-11/run" d="M419.89 464.159C400.726 450.452 381.561 436.744 362.396 423.037C369.63 453.05 376.864 483.064 384.099 513.077C402.906 524.821 421.713 536.564 440.521 548.308C433.644 520.258 426.767 492.209 419.89 464.159Z" fill="rgb(216, 202, 182)"/><path data-mark="solid/body/flow/5-5-0/shaft" d="M414.244 407.886C427.285 410.925 440.325 413.964 453.366 417.003" fill="none" stroke="var(--deep, #0369a1)" stroke-width="1"/><path data-mark="solid/body/flow/5-5-0/head" d="M457.261 417.911C456.054 417.219 454.846 416.526 453.638 415.834C453.457 416.613 453.275 417.392 453.093 418.172C454.483 418.085 455.872 417.998 457.261 417.911Z" fill="var(--deep, #0369a1)"/><path data-mark="solid/descent/run0/run" d="M335.988 222.882C339.433 225.861 342.878 228.841 346.324 231.821C349.68 234.61 353.036 237.399 356.391 240.189C359.664 242.796 362.937 245.404 366.21 248.012C369.405 250.447 372.601 252.882 375.796 255.316C378.92 257.587 382.044 259.857 385.168 262.128C388.225 264.242 391.282 266.356 394.339 268.47C397.336 270.435 400.332 272.4 403.328 274.366C406.268 276.19 409.208 278.014 412.148 279.837C415.036 281.528 417.925 283.218 420.814 284.908C423.657 286.473 426.499 288.037 429.342 289.601C432.143 291.048 434.945 292.494 437.746 293.941C440.511 295.278 443.276 296.616 446.041 297.954C448.775 299.192 451.509 300.431 454.243 301.67C456.95 302.821 459.658 303.973 462.366 305.124C465.052 306.202 467.738 307.281 470.424 308.359C473.093 309.382 475.762 310.405 478.431 311.428C481.084 312.418 483.738 313.408 486.392 314.399C489.029 315.385 491.666 316.372 494.303 317.359C496.916 318.378 499.529 319.398 502.142 320.418C504.713 321.513 507.284 322.608 509.855 323.704C512.355 324.919 514.855 326.134 517.356 327.349C519.752 328.719 522.148 330.09 524.544 331.46C526.809 333.008 529.074 334.555 531.34 336.102C533.465 337.831 535.589 339.561 537.714 341.29C539.706 343.197 541.697 345.105 543.689 347.012C545.563 349.091 547.438 351.169 549.313 353.248C551.09 355.489 552.866 357.731 554.643 359.973C556.341 362.372 558.039 364.772 559.736 367.171C561.37 369.723 563.003 372.274 564.637 374.826C566.219 377.527 567.801 380.228 569.383 382.928C570.924 385.775 572.464 388.621 574.004 391.468C575.51 394.458 577.016 397.448 578.523 400.438C580.001 403.569 581.479 406.7 582.956 409.831C584.411 413.101 585.865 416.371 587.319 419.641C588.753 423.048 590.187 426.456 591.621 429.863C593.038 433.405 594.454 436.947 595.871 440.49C597.272 444.165 598.673 447.84 600.074 451.515C601.46 455.321 602.847 459.127 604.234 462.933C605.607 466.867 606.981 470.801 608.355 474.735C609.716 478.796 611.077 482.856 612.438 486.916C613.788 491.099 615.137 495.283 616.486 499.466C617.824 503.77 619.161 508.074 620.498 512.378C621.824 516.799 623.15 521.221 624.476 525.642C625.79 530.178 627.104 534.714 628.418 539.249C629.719 543.896 631.021 548.543 632.323 553.19C633.613 557.944 634.902 562.699 636.191 567.453" fill="none" stroke="var(--moss, #15803d)" stroke-width="3.5"/><path data-mark="solid/descent/run1/run" d="M714.353 157.87C712.101 161.206 709.85 164.542 707.598 167.878C705.374 171.089 703.149 174.301 700.925 177.512C698.728 180.603 696.53 183.694 694.333 186.784C692.161 189.758 689.989 192.731 687.817 195.704C685.671 198.564 683.524 201.424 681.377 204.284C679.255 207.033 677.132 209.783 675.01 212.532C672.912 215.175 670.814 217.818 668.716 220.461C666.643 223.001 664.57 225.541 662.496 228.081C660.448 230.522 658.4 232.964 656.352 235.405C654.33 237.751 652.308 240.098 650.286 242.444C648.293 244.701 646.3 246.958 644.306 249.214C642.345 251.386 640.383 253.559 638.422 255.731C636.496 257.825 634.571 259.919 632.646 262.014C630.764 264.038 628.882 266.062 627 268.086C625.171 270.049 623.342 272.013 621.513 273.976C619.752 275.892 617.991 277.807 616.23 279.722C614.557 281.605 612.884 283.487 611.211 285.369C609.655 287.238 608.1 289.106 606.544 290.975C605.145 292.852 603.745 294.729 602.346 296.607C601.15 298.518 599.955 300.429 598.759 302.339C597.815 304.307 596.871 306.274 595.928 308.242C595.27 310.284 594.612 312.325 593.955 314.367C593.59 316.493 593.225 318.619 592.86 320.746C592.765 322.963 592.671 325.18 592.576 327.398C592.714 329.711 592.851 332.025 592.988 334.339C593.315 336.754 593.641 339.169 593.967 341.584C594.445 344.106 594.923 346.628 595.401 349.15C595.999 351.784 596.597 354.418 597.195 357.051C597.889 359.801 598.584 362.551 599.278 365.3C600.05 368.169 600.822 371.038 601.594 373.907C602.429 376.897 603.264 379.888 604.099 382.878C604.986 385.993 605.873 389.107 606.76 392.221C607.69 395.46 608.62 398.699 609.55 401.938C610.516 405.302 611.481 408.666 612.447 412.031C613.443 415.521 614.438 419.011 615.434 422.5C616.455 426.116 617.475 429.731 618.496 433.346C619.537 437.086 620.579 440.826 621.621 444.565C622.679 448.429 623.738 452.292 624.797 456.156C625.87 460.141 626.943 464.127 628.016 468.113C629.101 472.219 630.185 476.325 631.27 480.431C632.363 484.656 633.457 488.881 634.55 493.106C635.651 497.447 636.751 501.789 637.851 506.13C638.956 510.585 640.061 515.041 641.166 519.496C642.274 524.063 643.382 528.629 644.489 533.196C645.598 537.871 646.707 542.546 647.816 547.221C648.924 552.001 650.032 556.781 651.141 561.561" fill="none" stroke="var(--moss, #15803d)" stroke-width="3.5"/><path data-mark="solid/descent/run2/run" d="M468.743 296.785C471.07 297.212 473.397 297.639 475.724 298.067C477.991 298.359 480.259 298.65 482.526 298.942C484.722 299.094 486.919 299.246 489.115 299.398C491.222 299.401 493.328 299.404 495.434 299.407C497.413 299.249 499.391 299.09 501.369 298.931C503.145 298.594 504.922 298.256 506.698 297.919C508.139 297.396 509.581 296.873 511.022 296.35C511.963 295.684 512.904 295.018 513.846 294.352C514.235 293.65 514.625 292.948 515.014 292.245C514.974 291.605 514.934 290.965 514.894 290.324C514.582 289.789 514.269 289.255 513.957 288.72C513.481 288.302 513.006 287.884 512.53 287.466C511.956 287.164 511.383 286.862 510.809 286.561C510.176 286.371 509.542 286.181 508.909 285.992C508.24 285.91 507.57 285.829 506.901 285.748C506.21 285.77 505.519 285.793 504.829 285.816C504.127 285.939 503.425 286.062 502.723 286.185C502.017 286.405 501.311 286.625 500.605 286.845C499.899 287.158 499.194 287.471 498.488 287.785C497.787 288.188 497.085 288.591 496.383 288.995C495.688 289.485 494.993 289.975 494.298 290.466C493.612 291.04 492.926 291.614 492.239 292.188C491.563 292.843 490.886 293.499 490.21 294.154C489.545 294.887 488.88 295.62 488.215 296.353C487.561 297.161 486.908 297.969 486.255 298.777C485.615 299.658 484.974 300.538 484.334 301.419C483.707 302.369 483.08 303.319 482.453 304.269C481.839 305.285 481.226 306.302 480.612 307.319C480.012 308.4 479.413 309.481 478.813 310.562C478.228 311.704 477.642 312.846 477.056 313.989C476.485 315.19 475.914 316.391 475.342 317.592C474.785 318.85 474.228 320.107 473.671 321.365C473.128 322.677 472.586 323.988 472.043 325.299C471.514 326.662 470.986 328.025 470.457 329.388C469.943 330.8 469.429 332.212 468.915 333.624" fill="none" stroke="var(--moss, #15803d)" stroke-width="3.5"/><path data-mark="solid/cut/run0/run" d="M635.733 164.223C635.312 165.174 634.89 166.125 634.468 167.077C634.354 167.39 634.24 167.703 634.127 168.016C633.81 168.754 633.494 169.491 633.177 170.229C632.977 170.808 632.776 171.387 632.576 171.966C632.374 172.453 632.173 172.941 631.971 173.428C631.681 174.316 631.391 175.204 631.101 176.091C631.024 176.285 630.947 176.479 630.87 176.673C630.535 177.77 630.199 178.868 629.864 179.965C629.83 180.123 629.796 180.281 629.762 180.44C629.493 181.396 629.223 182.351 628.953 183.307C628.845 183.893 628.736 184.479 628.628 185.065C628.49 185.605 628.351 186.146 628.213 186.687C628.044 187.787 627.875 188.887 627.707 189.987C627.698 190.024 627.69 190.061 627.681 190.098C627.546 191.252 627.41 192.405 627.274 193.558C627.27 194.17 627.267 194.783 627.263 195.395C627.221 195.944 627.178 196.492 627.136 197.041C627.185 198.209 627.234 199.376 627.284 200.544C627.331 200.83 627.378 201.116 627.426 201.401C627.512 202.292 627.599 203.184 627.686 204.075C627.957 205.251 628.228 206.427 628.499 207.603C628.604 207.889 628.71 208.175 628.815 208.461C629.089 209.356 629.363 210.251 629.637 211.146C630.175 212.323 630.712 213.499 631.249 214.675C631.902 215.738 632.555 216.801 633.208 217.863C633.268 217.969 633.327 218.075 633.386 218.18C634.244 219.346 635.102 220.512 635.96 221.677C637.019 222.829 638.078 223.981 639.138 225.132C640.403 226.268 641.669 227.405 642.935 228.541C644.412 229.66 645.888 230.779 647.365 231.899C649.057 232.999 650.75 234.1 652.442 235.201C654.354 236.281 656.267 237.362 658.179 238.442C660.315 239.501 662.451 240.56 664.587 241.619C666.95 242.655 669.313 243.69 671.677 244.726C671.906 244.815 672.135 244.904 672.363 244.994C674.675 245.927 676.986 246.86 679.297 247.794C682.052 248.794 684.807 249.795 687.562 250.796C689.802 251.53 692.043 252.264 694.283 252.999C695.002 253.244 695.721 253.49 696.439 253.736C699.555 254.706 702.671 255.676 705.787 256.645C708.291 257.356 710.795 258.067 713.299 258.777C714.105 259.017 714.911 259.257 715.717 259.497C719.168 260.439 722.619 261.382 726.071 262.324C727.772 262.751 729.473 263.178 731.175 263.605C733.082 264.109 734.99 264.612 736.897 265.116C740.662 266.034 744.426 266.953 748.191 267.871C748.317 267.899 748.443 267.928 748.57 267.956C752.312 268.846 756.055 269.736 759.797 270.626C761.715 271.05 763.633 271.474 765.551 271.898C767.642 272.384 769.732 272.87 771.822 273.356C775.368 274.124 778.914 274.893 782.46 275.662C783.051 275.797 783.641 275.931 784.232 276.066C788.47 276.97 792.708 277.873 796.946 278.777C797.719 278.932 798.492 279.086 799.265 279.24C802.833 279.99 806.401 280.739 809.969 281.488C811.995 281.888 814.02 282.288 816.045 282.687C818.47 283.189 820.895 283.692 823.321 284.194C826.509 284.816 829.698 285.439 832.886 286.061C834.252 286.34 835.617 286.62 836.983 286.899C841.258 287.725 845.534 288.551 849.809 289.378" fill="none" stroke="var(--ember, #c2410c)" stroke-width="5"/><path data-mark="solid/cut/run1/run" d="M277.711 224.301C280.417 224.9 283.122 225.499 285.828 226.097C286.687 226.303 287.547 226.508 288.407 226.713C290.471 227.176 292.536 227.639 294.6 228.102C296.162 228.482 297.724 228.861 299.287 229.24C300.629 229.546 301.971 229.852 303.313 230.157C305.665 230.739 308.018 231.321 310.37 231.903C310.895 232.024 311.419 232.145 311.943 232.267C314.8 232.988 317.656 233.708 320.513 234.429C320.908 234.538 321.303 234.647 321.698 234.756C324.14 235.386 326.581 236.016 329.023 236.646C330.456 237.051 331.888 237.457 333.321 237.862C334.674 238.22 336.027 238.578 337.38 238.936C340.008 239.702 342.637 240.468 345.266 241.234C345.357 241.259 345.448 241.283 345.539 241.308C348.234 242.12 350.928 242.932 353.623 243.744C354.982 244.199 356.34 244.653 357.699 245.108C358.948 245.498 360.196 245.889 361.445 246.28C363.962 247.16 366.479 248.04 368.995 248.921C369.577 249.149 370.158 249.376 370.739 249.604C372.601 250.29 374.462 250.975 376.324 251.66C378.628 252.619 380.933 253.579 383.238 254.538C383.761 254.786 384.285 255.034 384.809 255.281C386.492 256.033 388.176 256.785 389.859 257.536C391.909 258.589 393.958 259.641 396.008 260.693C397.708 261.706 399.408 262.718 401.108 263.731C401.281 263.829 401.455 263.928 401.629 264.026C403.367 265.189 405.106 266.352 406.844 267.515C408.379 268.746 409.914 269.977 411.449 271.208C412.776 272.511 414.104 273.813 415.431 275.115C416.546 276.492 417.661 277.869 418.776 279.245C419.673 280.701 420.57 282.156 421.468 283.611C422.141 285.149 422.815 286.686 423.489 288.224C423.932 289.849 424.376 291.473 424.819 293.098C425.025 294.814 425.231 296.531 425.436 298.247C425.433 298.407 425.429 298.566 425.426 298.725C425.459 300.364 425.493 302.002 425.527 303.641C425.328 305.535 425.13 307.43 424.931 309.324C424.597 310.826 424.263 312.328 423.929 313.829C423.843 314.321 423.757 314.812 423.672 315.303C423.089 317.385 422.507 319.467 421.925 321.549C421.302 323.195 420.679 324.841 420.056 326.487C419.878 327.028 419.7 327.57 419.522 328.111C418.568 330.392 417.614 332.674 416.66 334.955C416.101 336.068 415.542 337.181 414.982 338.293C414.406 339.567 413.829 340.841 413.252 342.115C411.929 344.612 410.607 347.109 409.284 349.606C409.234 349.688 409.184 349.771 409.134 349.854C407.743 352.366 406.352 354.879 404.961 357.391C404.164 358.675 403.367 359.958 402.571 361.242C401.749 362.671 400.928 364.099 400.106 365.528C398.565 367.948 397.024 370.368 395.483 372.788C395.239 373.2 394.994 373.612 394.75 374.023C392.83 376.971 390.91 379.919 388.991 382.867C388.611 383.405 388.232 383.943 387.852 384.481C386.17 387.015 384.487 389.549 382.804 392.082C381.773 393.525 380.742 394.968 379.711 396.41C378.52 398.173 377.328 399.936 376.137 401.699C374.454 404.027 372.771 406.355 371.088 408.682C370.389 409.699 369.691 410.717 368.993 411.734C366.653 414.936 364.314 418.139 361.974 421.342" fill="none" stroke="var(--ember, #c2410c)" stroke-width="5"/><path data-mark="solid/axes/x/line/run" d="M718.819 258.596C585.587 289.445 452.355 320.294 319.124 351.143" fill="none" stroke="var(--ink, #1b1b1b)" stroke-width="1.4"/><path data-mark="solid/axes/x/ticks/-1/run" d="M660.133 269.24C662.135 270.75 664.138 272.26 666.14 273.769" fill="none" stroke="var(--ink, #1b1b1b)" stroke-width="1.4"/><path data-mark="solid/axes/x/ticks/0/run" d="M537.535 297.422C539.188 299.151 540.841 300.88 542.495 302.609" fill="none" stroke="var(--ink, #1b1b1b)" stroke-width="1.4"/><path data-mark="solid/axes/x/ticks/1/run" d="M396.556 329.829C397.729 331.828 398.901 333.828 400.073 335.828" fill="none" stroke="var(--ink, #1b1b1b)" stroke-width="1.4"/><text data-mark="solid/axes/x/labels/-1/label" x="670.621" y="269.755" font-family="sans-serif" font-size="22" fill="var(--ink, #1b1b1b)" text-anchor="middle" dominant-baseline="middle">-1</text><text data-mark="solid/axes/x/labels/0/label" x="540" y="307.7" font-family="sans-serif" font-size="22" fill="var(--ink, #1b1b1b)" text-anchor="middle" dominant-baseline="middle">0</text><text data-mark="solid/axes/x/labels/1/label" x="390.802" y="334.546" font-family="sans-serif" font-size="22" fill="var(--ink, #1b1b1b)" text-anchor="middle" dominant-baseline="middle">1</text><path data-mark="solid/axes/y/line/run" d="M463.996 220.524C529.259 288.768 594.522 357.013 659.786 425.257" fill="none" stroke="var(--ink, #1b1b1b)" stroke-width="1.4"/><path data-mark="solid/axes/y/ticks/-1/run" d="M486.218 248.16C486.101 245.096 485.985 242.032 485.868 238.969" fill="none" stroke="var(--ink, #1b1b1b)" stroke-width="1.4"/><path data-mark="solid/axes/y/ticks/0/run" d="M540 305.052C540 301.671 540 298.291 540 294.91" fill="none" stroke="var(--ink, #1b1b1b)" stroke-width="1.4"/><path data-mark="solid/axes/y/ticks/1/run" d="M612.544 381.791C612.757 378.04 612.97 374.29 613.182 370.54" fill="none" stroke="var(--ink, #1b1b1b)" stroke-width="1.4"/><text data-mark="solid/axes/y/labels/-1/label" x="480.722" y="238.014" font-family="sans-serif" font-size="22" fill="var(--ink, #1b1b1b)" text-anchor="middle" dominant-baseline="middle">-1</text><text data-mark="solid/axes/y/labels/1/label" x="618.184" y="381.755" font-family="sans-serif" font-size="22" fill="var(--ink, #1b1b1b)" text-anchor="middle" dominant-baseline="middle">1</text><path data-mark="solid/axes/z/line/run" d="M540 436.83C540 334.134 540 231.438 540 128.742" fill="none" stroke="var(--ink, #1b1b1b)" stroke-width="1.4"/><path data-mark="solid/axes/z/ticks/-1/run" d="M544.809 414.557C541.595 415.5 538.381 416.443 535.166 417.385" fill="none" stroke="var(--ink, #1b1b1b)" stroke-width="1.4"/><path data-mark="solid/axes/z/ticks/0/run" d="M545.256 298.783C541.742 299.597 538.228 300.41 534.715 301.224" fill="none" stroke="var(--ink, #1b1b1b)" stroke-width="1.4"/><path data-mark="solid/axes/z/ticks/1/run" d="M545.794 159.306C541.919 159.914 538.045 160.523 534.171 161.132" fill="none" stroke="var(--ink, #1b1b1b)" stroke-width="1.4"/><text data-mark="solid/axes/z/labels/-1/label" x="540" y="423.668" font-family="sans-serif" font-size="22" fill="var(--ink, #1b1b1b)" text-anchor="middle" dominant-baseline="middle">-1</text><text data-mark="solid/axes/z/labels/1/label" x="540" y="152.516" font-family="sans-serif" font-size="22" fill="var(--ink, #1b1b1b)" text-anchor="middle" dominant-baseline="middle">1</text><path data-mark="solid/rule/0-1D467" d="M31.889 86.193C31.691 86.193 31.167 86.084 30.317 85.867C29.467 85.649 28.845 85.54 28.449 85.54C28.054 85.54 27.718 85.58 27.441 85.659C27.165 85.738 26.937 85.837 26.759 85.955C26.581 86.074 26.463 86.183 26.403 86.282C26.344 86.38 26.275 86.489 26.196 86.608C26.176 86.647 26.156 86.687 26.137 86.726C26.077 86.786 25.929 86.815 25.692 86.815C25.277 86.815 25.069 86.736 25.069 86.578C25.069 86.479 25.099 86.341 25.158 86.163C25.415 85.392 25.84 84.73 26.433 84.176C27.026 83.623 27.678 83.287 28.39 83.168C28.627 83.129 28.795 83.109 28.894 83.109C29.388 83.109 29.833 83.277 30.228 83.613C30.624 83.949 30.999 84.275 31.355 84.592C31.711 84.908 32.087 85.076 32.482 85.096C32.917 85.096 33.352 84.769 33.787 84.117C34.221 83.465 34.449 83.139 34.469 83.139C34.488 83.119 34.637 83.109 34.913 83.109C35.042 83.109 35.17 83.109 35.299 83.109C35.417 83.228 35.477 83.307 35.477 83.346C35.477 83.425 35.427 83.564 35.328 83.761C35.23 83.959 35.091 84.167 34.913 84.384C34.735 84.601 34.567 84.819 34.409 85.036C34.251 85.254 34.113 85.442 33.994 85.6C33.925 85.689 33.856 85.778 33.787 85.867C32.937 86.875 31.592 88.209 29.754 89.869C27.916 91.53 26.779 92.597 26.344 93.072C26.226 93.19 26.107 93.309 25.988 93.428C26.137 93.437 26.285 93.447 26.433 93.457C26.868 93.457 27.501 93.566 28.331 93.783C29.161 94.001 29.784 94.11 30.199 94.11C30.95 94.11 31.642 93.922 32.274 93.546C32.907 93.171 33.322 92.676 33.52 92.064C33.599 91.886 33.668 91.777 33.727 91.737C33.787 91.698 33.935 91.678 34.172 91.678C34.548 91.678 34.735 91.777 34.735 91.975C34.735 92.073 34.726 92.162 34.706 92.242C34.37 93.467 33.717 94.485 32.749 95.296C31.78 96.106 30.812 96.521 29.843 96.541C29.329 96.541 28.874 96.373 28.479 96.037C28.084 95.701 27.698 95.365 27.323 95.029C26.947 94.693 26.571 94.525 26.196 94.525C25.326 94.525 24.545 95.118 23.853 96.304C23.735 96.462 23.567 96.541 23.349 96.541C23.3 96.541 23.251 96.541 23.201 96.541C23.073 96.541 22.944 96.541 22.816 96.541C22.697 96.422 22.638 96.333 22.638 96.274C22.638 95.978 23.211 95.128 24.358 93.724C25.128 92.835 26.433 91.55 28.271 89.869C30.11 88.189 31.246 87.122 31.681 86.667C31.919 86.351 31.988 86.193 31.889 86.193Z" fill="var(--ink, #1b1b1b)"/><path data-mark="solid/rule/1-3D" d="M45.285 85.926C45.285 85.669 45.424 85.471 45.7 85.333C51.996 85.333 58.292 85.333 64.588 85.333C64.885 85.491 65.033 85.689 65.033 85.926C65.033 86.143 64.894 86.331 64.618 86.489C61.475 86.499 58.332 86.509 55.189 86.519C52.046 86.519 48.903 86.519 45.76 86.519C45.443 86.42 45.285 86.222 45.285 85.926ZM45.285 91.678C45.285 91.382 45.443 91.184 45.76 91.085C52.046 91.085 58.332 91.085 64.618 91.085C64.894 91.283 65.033 91.48 65.033 91.678C65.033 91.935 64.885 92.133 64.588 92.271C58.292 92.271 51.996 92.271 45.7 92.271C45.424 92.133 45.285 91.935 45.285 91.678Z" fill="var(--ink, #1b1b1b)"/><path data-mark="solid/rule/2-1D465" d="M82.995 67.601C83.134 66.771 83.668 65.813 84.597 64.725C85.526 63.638 86.672 63.085 88.036 63.065C88.728 63.065 89.361 63.243 89.934 63.599C90.507 63.954 90.932 64.399 91.209 64.933C92.039 63.688 93.037 63.065 94.204 63.065C94.935 63.065 95.567 63.282 96.101 63.717C96.635 64.152 96.912 64.735 96.931 65.467C96.931 66.04 96.793 66.504 96.516 66.86C96.24 67.216 95.973 67.433 95.716 67.513C95.459 67.592 95.231 67.631 95.034 67.631C94.658 67.631 94.352 67.522 94.115 67.305C93.877 67.088 93.759 66.801 93.759 66.445C93.759 65.536 94.253 64.913 95.241 64.577C95.024 64.32 94.629 64.192 94.055 64.192C93.798 64.192 93.611 64.211 93.492 64.251C92.741 64.567 92.187 65.22 91.831 66.208C90.645 70.576 90.052 73.126 90.052 73.858C90.052 74.411 90.211 74.807 90.527 75.044C90.843 75.281 91.189 75.4 91.565 75.4C92.296 75.4 93.018 75.074 93.729 74.421C94.441 73.769 94.925 72.968 95.182 72.019C95.241 71.822 95.301 71.713 95.36 71.693C95.419 71.674 95.577 71.654 95.834 71.634C95.874 71.634 95.913 71.634 95.953 71.634C96.249 71.634 96.398 71.713 96.398 71.871C96.398 71.891 96.378 72 96.338 72.197C96.022 73.324 95.409 74.322 94.5 75.192C93.591 76.062 92.533 76.497 91.327 76.497C89.944 76.497 88.896 75.874 88.184 74.629C87.374 75.854 86.445 76.467 85.397 76.467C85.338 76.467 85.279 76.467 85.219 76.467C84.251 76.467 83.559 76.21 83.144 75.696C82.729 75.182 82.511 74.639 82.491 74.065C82.491 73.433 82.679 72.919 83.055 72.524C83.43 72.128 83.875 71.931 84.389 71.931C85.239 71.931 85.664 72.346 85.664 73.176C85.664 73.571 85.545 73.917 85.308 74.214C85.071 74.51 84.844 74.708 84.626 74.807C84.409 74.906 84.28 74.955 84.241 74.955C84.211 74.965 84.181 74.975 84.152 74.985C84.152 75.004 84.211 75.044 84.33 75.103C84.448 75.163 84.606 75.232 84.804 75.311C85.002 75.39 85.19 75.419 85.368 75.4C86.079 75.4 86.692 74.955 87.206 74.065C87.384 73.749 87.611 73.077 87.888 72.049C88.165 71.021 88.441 69.954 88.718 68.847C88.995 67.74 89.153 67.088 89.193 66.89C89.291 66.356 89.341 65.971 89.341 65.733C89.341 65.18 89.193 64.785 88.896 64.547C88.599 64.31 88.263 64.192 87.888 64.192C87.097 64.192 86.356 64.508 85.664 65.14C84.972 65.773 84.488 66.583 84.211 67.572C84.172 67.75 84.122 67.849 84.063 67.868C84.004 67.888 83.845 67.908 83.588 67.928C83.45 67.928 83.312 67.928 83.173 67.928C83.055 67.809 82.995 67.7 82.995 67.601Z" fill="var(--ink, #1b1b1b)"/><path data-mark="solid/rule/3-32" d="M101.677 56.414C101.3 56.414 101 56.288 100.776 56.037C100.552 55.785 100.441 55.478 100.441 55.114C100.441 54.122 100.811 53.263 101.552 52.536C102.292 51.809 103.215 51.446 104.319 51.446C105.591 51.446 106.653 51.837 107.505 52.62C108.358 53.402 108.791 54.416 108.805 55.659C108.805 56.26 108.665 56.833 108.386 57.378C108.106 57.923 107.771 58.399 107.379 58.804C106.988 59.209 106.429 59.726 105.702 60.355C105.199 60.788 104.501 61.431 103.606 62.284C103.194 62.675 102.782 63.066 102.369 63.458C102.9 63.465 103.431 63.472 103.962 63.479C106.157 63.479 107.324 63.444 107.463 63.374C107.561 63.346 107.729 62.724 107.966 61.508C107.966 61.487 107.966 61.466 107.966 61.445C108.246 61.445 108.525 61.445 108.805 61.445C108.805 61.466 108.805 61.487 108.805 61.508C108.791 61.55 108.7 62.186 108.532 63.416C108.365 64.646 108.26 65.289 108.218 65.344C108.218 65.365 108.218 65.386 108.218 65.407C105.626 65.407 103.033 65.407 100.441 65.407C100.441 65.275 100.441 65.142 100.441 65.009C100.441 64.925 100.441 64.841 100.441 64.757C100.441 64.66 100.483 64.555 100.566 64.443C100.65 64.331 100.86 64.087 101.195 63.709C101.601 63.262 101.95 62.871 102.243 62.535C102.369 62.396 102.607 62.137 102.956 61.76C103.306 61.382 103.543 61.124 103.669 60.984C103.795 60.844 103.997 60.614 104.277 60.292C104.556 59.971 104.752 59.733 104.864 59.58C104.976 59.426 105.136 59.216 105.346 58.951C105.556 58.685 105.702 58.461 105.786 58.28C105.87 58.098 105.975 57.895 106.101 57.672C106.227 57.448 106.317 57.225 106.373 57.001C106.429 56.777 106.478 56.568 106.52 56.372C106.562 56.176 106.583 55.946 106.583 55.68C106.583 54.8 106.345 54.038 105.87 53.395C105.395 52.752 104.717 52.431 103.837 52.431C103.376 52.431 102.97 52.55 102.621 52.787C102.271 53.025 102.027 53.256 101.887 53.479C101.747 53.703 101.677 53.836 101.677 53.878C101.677 53.891 101.712 53.898 101.782 53.898C102.034 53.898 102.292 53.996 102.558 54.192C102.823 54.388 102.956 54.709 102.956 55.156C102.956 55.506 102.844 55.799 102.621 56.037C102.397 56.274 102.083 56.4 101.677 56.414Z" fill="var(--ink, #1b1b1b)"/><path data-mark="solid/rule/4-2212" d="M120.439 69.143C120.439 69.143 120.439 69.015 120.439 68.758C120.439 68.501 120.577 68.303 120.854 68.165C126.596 68.165 132.339 68.165 138.081 68.165C138.378 68.323 138.526 68.521 138.526 68.758C138.526 68.995 138.378 69.193 138.081 69.351C132.339 69.351 126.596 69.351 120.854 69.351C120.577 69.213 120.439 69.015 120.439 68.758Z" fill="var(--ink, #1b1b1b)"/><path data-mark="solid/rule/5-1D466" d="M148.228 67.661C148.228 67.384 148.376 66.91 148.673 66.238C148.969 65.565 149.443 64.864 150.096 64.132C150.748 63.401 151.479 63.045 152.29 63.065C153.1 63.065 153.753 63.292 154.247 63.747C154.741 64.202 154.998 64.834 155.018 65.645C154.978 66.02 154.949 66.228 154.929 66.267C154.929 66.326 154.771 66.781 154.454 67.631C154.138 68.481 153.812 69.44 153.476 70.507C153.14 71.575 152.982 72.425 153.002 73.057C153.002 73.907 153.14 74.5 153.417 74.836C153.693 75.172 154.109 75.35 154.662 75.37C155.117 75.37 155.542 75.261 155.937 75.044C156.332 74.826 156.639 74.599 156.856 74.362C157.074 74.125 157.341 73.799 157.657 73.383C157.657 73.364 157.706 73.166 157.805 72.79C157.904 72.415 158.042 71.832 158.22 71.041C158.398 70.25 158.586 69.519 158.784 68.847C159.535 65.882 159.95 64.33 160.029 64.192C160.286 63.658 160.711 63.391 161.304 63.391C161.561 63.391 161.768 63.46 161.927 63.599C162.085 63.737 162.193 63.856 162.253 63.954C162.312 64.053 162.332 64.142 162.312 64.221C162.312 64.478 161.828 66.554 160.859 70.448C159.89 74.342 159.337 76.477 159.199 76.853C158.645 78.493 157.686 79.798 156.322 80.767C154.959 81.735 153.595 82.229 152.231 82.249C151.341 82.249 150.56 82.032 149.888 81.597C149.216 81.162 148.88 80.51 148.88 79.64C148.88 79.205 148.949 78.839 149.088 78.543C149.226 78.246 149.414 78.029 149.651 77.89C149.888 77.752 150.086 77.653 150.244 77.594C150.402 77.535 150.57 77.505 150.748 77.505C151.618 77.505 152.053 77.92 152.053 78.75C152.053 79.146 151.934 79.492 151.697 79.788C151.46 80.085 151.232 80.282 151.015 80.381C150.798 80.48 150.669 80.529 150.629 80.529C150.6 80.539 150.57 80.549 150.541 80.559C150.58 80.658 150.768 80.776 151.104 80.915C151.44 81.053 151.776 81.122 152.112 81.122C152.191 81.122 152.27 81.122 152.349 81.122C152.685 81.122 152.942 81.103 153.12 81.063C153.772 80.885 154.375 80.51 154.929 79.936C155.482 79.363 155.907 78.75 156.204 78.098C156.5 77.446 156.728 76.892 156.886 76.438C157.044 75.983 157.123 75.686 157.123 75.548C157.064 75.588 157.004 75.627 156.945 75.667C156.827 75.746 156.639 75.854 156.382 75.993C156.125 76.131 155.868 76.25 155.611 76.349C155.216 76.447 154.83 76.497 154.454 76.497C153.545 76.497 152.745 76.279 152.053 75.844C151.361 75.41 150.906 74.708 150.689 73.739C150.669 73.601 150.659 73.294 150.659 72.82C150.659 71.693 151.005 70.221 151.697 68.402C152.389 66.583 152.735 65.427 152.735 64.933C152.735 64.913 152.735 64.893 152.735 64.874C152.735 64.696 152.735 64.577 152.735 64.518C152.735 64.458 152.695 64.389 152.616 64.31C152.537 64.231 152.428 64.192 152.29 64.192C152.25 64.192 152.211 64.192 152.171 64.192C151.717 64.192 151.302 64.379 150.926 64.755C150.55 65.131 150.254 65.536 150.036 65.971C149.819 66.406 149.651 66.821 149.532 67.216C149.414 67.611 149.335 67.829 149.295 67.868C149.256 67.908 149.098 67.928 148.821 67.928C148.682 67.928 148.544 67.928 148.406 67.928C148.287 67.809 148.228 67.72 148.228 67.661Z" fill="var(--ink, #1b1b1b)"/><path data-mark="solid/rule/6-32" d="M165.398 56.414C165.02 56.414 164.72 56.288 164.496 56.037C164.273 55.785 164.161 55.478 164.161 55.114C164.161 54.122 164.531 53.263 165.272 52.536C166.012 51.809 166.935 51.446 168.039 51.446C169.311 51.446 170.373 51.837 171.225 52.62C172.078 53.402 172.511 54.416 172.525 55.659C172.525 56.26 172.385 56.833 172.106 57.378C171.826 57.923 171.491 58.399 171.1 58.804C170.708 59.209 170.149 59.726 169.423 60.355C168.919 60.788 168.221 61.431 167.326 62.284C166.914 62.675 166.502 63.066 166.089 63.458C166.62 63.465 167.152 63.472 167.683 63.479C169.877 63.479 171.044 63.444 171.183 63.374C171.281 63.346 171.449 62.724 171.687 61.508C171.687 61.487 171.687 61.466 171.687 61.445C171.966 61.445 172.246 61.445 172.525 61.445C172.525 61.466 172.525 61.487 172.525 61.508C172.511 61.55 172.42 62.186 172.253 63.416C172.085 64.646 171.98 65.289 171.938 65.344C171.938 65.365 171.938 65.386 171.938 65.407C169.346 65.407 166.753 65.407 164.161 65.407C164.161 65.275 164.161 65.142 164.161 65.009C164.161 64.925 164.161 64.841 164.161 64.757C164.161 64.66 164.203 64.555 164.287 64.443C164.37 64.331 164.58 64.087 164.915 63.709C165.321 63.262 165.67 62.871 165.964 62.535C166.089 62.396 166.327 62.137 166.676 61.76C167.026 61.382 167.263 61.124 167.389 60.984C167.515 60.844 167.718 60.614 167.997 60.292C168.277 59.971 168.472 59.733 168.584 59.58C168.696 59.426 168.857 59.216 169.066 58.951C169.276 58.685 169.423 58.461 169.506 58.28C169.59 58.098 169.695 57.895 169.821 57.672C169.947 57.448 170.037 57.225 170.093 57.001C170.149 56.777 170.198 56.568 170.24 56.372C170.282 56.176 170.303 55.946 170.303 55.68C170.303 54.8 170.065 54.038 169.59 53.395C169.115 52.752 168.437 52.431 167.557 52.431C167.096 52.431 166.69 52.55 166.341 52.787C165.992 53.025 165.747 53.256 165.607 53.479C165.467 53.703 165.398 53.836 165.398 53.878C165.398 53.891 165.433 53.898 165.502 53.898C165.754 53.898 166.012 53.996 166.278 54.192C166.544 54.388 166.676 54.709 166.676 55.156C166.676 55.506 166.565 55.799 166.341 56.037C166.117 56.274 165.803 56.4 165.398 56.414Z" fill="var(--ink, #1b1b1b)"/><path data-mark="solid/rule/7-32" d="M124.086 103.835C123.552 103.835 123.127 103.657 122.811 103.301C122.495 102.946 122.336 102.511 122.336 101.997C122.336 100.593 122.86 99.378 123.908 98.35C124.956 97.322 126.26 96.808 127.822 96.808C129.621 96.808 131.123 97.361 132.329 98.468C133.535 99.575 134.147 101.008 134.167 102.768C134.167 103.618 133.97 104.428 133.574 105.199C133.179 105.97 132.704 106.642 132.151 107.215C131.597 107.789 130.807 108.52 129.779 109.409C129.067 110.022 128.079 110.932 126.814 112.137C126.231 112.691 125.647 113.244 125.064 113.798C125.816 113.808 126.567 113.818 127.318 113.827C130.421 113.827 132.072 113.778 132.27 113.679C132.408 113.64 132.645 112.76 132.981 111.04C132.981 111.011 132.981 110.981 132.981 110.951C133.377 110.951 133.772 110.951 134.167 110.951C134.167 110.981 134.167 111.011 134.167 111.04C134.147 111.1 134.019 111.999 133.782 113.739C133.545 115.478 133.396 116.387 133.337 116.466C133.337 116.496 133.337 116.526 133.337 116.555C129.67 116.555 126.003 116.555 122.336 116.555C122.336 116.368 122.336 116.18 122.336 115.992C122.336 115.873 122.336 115.755 122.336 115.636C122.336 115.498 122.396 115.35 122.514 115.191C122.633 115.033 122.929 114.687 123.404 114.154C123.977 113.521 124.471 112.968 124.886 112.493C125.064 112.295 125.4 111.93 125.895 111.396C126.389 110.862 126.725 110.497 126.903 110.299C127.081 110.101 127.367 109.775 127.763 109.321C128.158 108.866 128.435 108.53 128.593 108.312C128.751 108.095 128.978 107.798 129.275 107.423C129.571 107.047 129.779 106.731 129.897 106.474C130.016 106.217 130.164 105.93 130.342 105.614C130.52 105.298 130.649 104.982 130.728 104.665C130.807 104.349 130.876 104.053 130.935 103.776C130.995 103.499 131.024 103.173 131.024 102.797C131.024 101.552 130.688 100.475 130.016 99.565C129.344 98.656 128.385 98.201 127.14 98.201C126.488 98.201 125.914 98.369 125.42 98.705C124.926 99.041 124.58 99.368 124.382 99.684C124.185 100 124.086 100.188 124.086 100.247C124.086 100.267 124.135 100.277 124.234 100.277C124.59 100.277 124.956 100.415 125.331 100.692C125.707 100.969 125.895 101.423 125.895 102.056C125.895 102.55 125.736 102.965 125.42 103.301C125.104 103.637 124.659 103.815 124.086 103.835Z" fill="var(--ink, #1b1b1b)"/><path data-mark="solid/rule/8-rule" d="M78.488 89.692C111.674 89.692 144.859 89.692 178.045 89.692C178.045 89.098 178.045 88.505 178.045 87.912C144.859 87.912 111.674 87.912 78.488 87.912C78.488 88.505 78.488 89.098 78.488 89.692Z" fill="var(--ink, #1b1b1b)"/></svg>
